<svg version="1.1" viewBox="0.0 0.0 600.0 371.0" fill="none" stroke="none" stroke-linecap="square" stroke-miterlimit="10" width="600" height="371" xmlns:xlink="http://www.w3.org/1999/xlink" xmlns="http://www.w3.org/2000/svg"><path fill="#ffffff" d="M0 0L600.0 0L600.0 371.0L0 371.0L0 0Z" fill-rule="nonzero"/><path stroke="#333333" stroke-width="1.0" stroke-linecap="butt" d="M109.5 61.5L109.5 300.5" fill-rule="nonzero"/><path stroke="#cccccc" stroke-width="1.0" stroke-linecap="butt" d="M226.5 61.5L226.5 300.5" fill-rule="nonzero"/><path stroke="#cccccc" stroke-width="1.0" stroke-linecap="butt" d="M343.5 61.5L343.5 300.5" fill-rule="nonzero"/><path stroke="#cccccc" stroke-width="1.0" stroke-linecap="butt" d="M459.5 61.5L459.5 300.5" fill-rule="nonzero"/><path stroke="#cccccc" stroke-width="1.0" stroke-linecap="butt" d="M576.5 61.5L576.5 300.5" fill-rule="nonzero"/><path stroke="#333333" stroke-width="1.0" stroke-linecap="butt" d="M109.5 300.5L581.5 300.5" fill-rule="nonzero"/><path stroke="#cccccc" stroke-width="1.0" stroke-linecap="butt" d="M109.5 240.5L581.5 240.5" fill-rule="nonzero"/><path stroke="#cccccc" stroke-width="1.0" stroke-linecap="butt" d="M109.5 181.5L581.5 181.5" fill-rule="nonzero"/><path stroke="#cccccc" stroke-width="1.0" stroke-linecap="butt" d="M109.5 121.5L581.5 121.5" fill-rule="nonzero"/><path stroke="#cccccc" stroke-width="1.0" stroke-linecap="butt" d="M109.5 61.5L581.5 61.5" fill-rule="nonzero"/><clipPath id="id_0"><path d="M109.55 61.916668L581.45 61.916668L581.45 300.45L109.55 300.45L109.55 61.916668Z" clip-rule="nonzero"/></clipPath><path stroke="#4285f4" stroke-width="2.0" stroke-linecap="butt" clip-path="url(#id_0)" d="M114.44624 300.24225L133.11725 294.50046L156.45602 263.11844L343.16614 248.06241L576.5538 97.31833" fill-rule="nonzero"/><path fill="#4285f4" clip-path="url(#id_0)" d="M117.94624 300.24225C117.94624 302.17526 116.37924 303.74225 114.44624 303.74225C112.513245 303.74225 110.94624 302.17526 110.94624 300.24225C110.94624 298.30927 112.513245 296.74225 114.44624 296.74225C116.37924 296.74225 117.94624 298.30927 117.94624 300.24225Z" fill-rule="nonzero"/><path fill="#4285f4" clip-path="url(#id_0)" d="M136.61725 294.50046C136.61725 296.43347 135.05025 298.00046 133.11725 298.00046C131.18427 298.00046 129.61725 296.43347 129.61725 294.50046C129.61725 292.56747 131.18427 291.00046 133.11725 291.00046C135.05025 291.00046 136.61725 292.56747 136.61725 294.50046Z" fill-rule="nonzero"/><path fill="#4285f4" clip-path="url(#id_0)" d="M159.95602 263.11844C159.95602 265.05142 158.389 266.61844 156.45602 266.61844C154.52303 266.61844 152.95602 265.05142 152.95602 263.11844C152.95602 261.18546 154.52303 259.61844 156.45602 259.61844C158.389 259.61844 159.95602 261.18546 159.95602 263.11844Z" fill-rule="nonzero"/><path fill="#4285f4" clip-path="url(#id_0)" d="M346.66614 248.06241C346.66614 249.9954 345.09912 251.56241 343.16614 251.56241C341.23312 251.56241 339.66614 249.9954 339.66614 248.06241C339.66614 246.12941 341.23312 244.56241 343.16614 244.56241C345.09912 244.56241 346.66614 246.12941 346.66614 248.06241Z" fill-rule="nonzero"/><path fill="#4285f4" clip-path="url(#id_0)" d="M580.0538 97.31833C580.0538 99.25133 578.48676 100.81833 576.5538 100.81833C574.6208 100.81833 573.0538 99.25133 573.0538 97.31833C573.0538 95.38534 574.6208 93.81833 576.5538 93.81833C578.48676 93.81833 580.0538 95.38534 580.0538 97.31833Z" fill-rule="nonzero"/><path fill="#000000" d="M316.92188 349.45L316.92188 340.85626L319.89062 340.85626Q320.89062 340.85626 321.42188 340.98126Q322.15625 341.15314 322.67188 341.59064Q323.35938 342.16876 323.6875 343.075Q324.03125 343.96564 324.03125 345.10626Q324.03125 346.09064 323.79688 346.84064Q323.57812 347.59064 323.21875 348.09064Q322.85938 348.59064 322.42188 348.8719Q322.0 349.15314 321.40625 349.3094Q320.8125 349.45 320.03125 349.45L316.92188 349.45ZM318.0625 348.4344L319.89062 348.4344Q320.75 348.4344 321.23438 348.27814Q321.71875 348.1219 322.0 347.825Q322.40625 347.4344 322.625 346.7469Q322.85938 346.0594 322.85938 345.09064Q322.85938 343.7469 322.40625 343.02814Q321.96875 342.29376 321.34375 342.04376Q320.875 341.8719 319.875 341.8719L318.0625 341.8719L318.0625 348.4344ZM325.79688 342.075L325.79688 340.85626L326.85938 340.85626L326.85938 342.075L325.79688 342.075ZM325.79688 349.45L325.79688 343.23126L326.85938 343.23126L326.85938 349.45L325.79688 349.45ZM328.79688 349.45L328.79688 343.23126L329.73438 343.23126L329.73438 344.10626Q330.03125 343.6375 330.51562 343.3719Q331.0 343.09064 331.625 343.09064Q332.3125 343.09064 332.75 343.3719Q333.20312 343.65314 333.375 344.16876Q334.125 343.09064 335.29688 343.09064Q336.23438 343.09064 336.71875 343.60626Q337.21875 344.10626 337.21875 345.1844L337.21875 349.45L336.17188 349.45L336.17188 345.52814Q336.17188 344.90314 336.0625 344.6219Q335.96875 344.34064 335.70312 344.16876Q335.4375 343.9969 335.0625 343.9969Q334.40625 343.9969 333.96875 344.4344Q333.54688 344.8719 333.54688 345.84064L333.54688 349.45L332.48438 349.45L332.48438 345.40314Q332.48438 344.7 332.21875 344.35626Q331.96875 343.9969 331.39062 343.9969Q330.9375 343.9969 330.5625 344.23126Q330.1875 344.46564 330.01562 344.91876Q329.84375 345.3719 329.84375 346.21564L329.84375 349.45L328.79688 349.45ZM343.04688 347.45L344.14062 347.575Q343.89062 348.52814 343.1875 349.0594Q342.48438 349.59064 341.40625 349.59064Q340.04688 349.59064 339.23438 348.7469Q338.4375 347.90314 338.4375 346.3875Q338.4375 344.825 339.25 343.96564Q340.0625 343.09064 341.34375 343.09064Q342.59375 343.09064 343.375 343.9344Q344.17188 344.77814 344.17188 346.325Q344.17188 346.41876 344.17188 346.60626L339.53125 346.60626Q339.59375 347.6375 340.10938 348.1844Q340.625 348.71564 341.40625 348.71564Q341.98438 348.71564 342.39062 348.41876Q342.8125 348.10626 343.04688 347.45ZM339.59375 345.7469L343.0625 345.7469Q343.0 344.95 342.67188 344.5594Q342.15625 343.95 341.35938 343.95Q340.625 343.95 340.125 344.4344Q339.64062 344.91876 339.59375 345.7469ZM345.79688 349.45L345.79688 343.23126L346.73438 343.23126L346.73438 344.10626Q347.42188 343.09064 348.71875 343.09064Q349.28125 343.09064 349.75 343.29376Q350.23438 343.4969 350.46875 343.825Q350.70312 344.15314 350.79688 344.59064Q350.84375 344.8875 350.84375 345.6219L350.84375 349.45L349.79688 349.45L349.79688 345.66876Q349.79688 345.0125 349.67188 344.7Q349.54688 344.3875 349.23438 344.2Q348.92188 343.9969 348.5 343.9969Q347.82812 343.9969 347.32812 344.4344Q346.84375 344.85626 346.84375 346.04376L346.84375 349.45L345.79688 349.45ZM352.375 347.59064L353.40625 347.4344Q353.5 348.0594 353.89062 348.3875Q354.29688 348.71564 355.03125 348.71564Q355.75 348.71564 356.09375 348.4344Q356.45312 348.1375 356.45312 347.73126Q356.45312 347.3719 356.14062 347.16876Q355.92188 347.02814 355.0625 346.8094Q353.90625 346.5125 353.45312 346.3094Q353.01562 346.09064 352.78125 345.71564Q352.54688 345.34064 352.54688 344.8719Q352.54688 344.46564 352.73438 344.10626Q352.92188 343.7469 353.25 343.5125Q353.5 343.34064 353.92188 343.21564Q354.34375 343.09064 354.84375 343.09064Q355.5625 343.09064 356.10938 343.3094Q356.67188 343.5125 356.9375 343.8719Q357.20312 344.23126 357.29688 344.825L356.26562 344.96564Q356.20312 344.4969 355.85938 344.23126Q355.53125 343.95 354.90625 343.95Q354.1875 343.95 353.875 344.2Q353.5625 344.4344 353.5625 344.7625Q353.5625 344.96564 353.6875 345.1219Q353.82812 345.29376 354.09375 345.40314Q354.25 345.46564 355.03125 345.66876Q356.15625 345.98126 356.59375 346.16876Q357.03125 346.35626 357.28125 346.71564Q357.53125 347.075 357.53125 347.6219Q357.53125 348.15314 357.21875 348.6219Q356.92188 349.075 356.34375 349.34064Q355.76562 349.59064 355.03125 349.59064Q353.8125 349.59064 353.17188 349.09064Q352.54688 348.575 352.375 347.59064ZM358.79688 342.075L358.79688 340.85626L359.85938 340.85626L359.85938 342.075L358.79688 342.075ZM358.79688 349.45L358.79688 343.23126L359.85938 343.23126L359.85938 349.45L358.79688 349.45ZM361.40625 346.34064Q361.40625 344.60626 362.35938 343.77814Q363.15625 343.09064 364.3125 343.09064Q365.59375 343.09064 366.40625 343.9344Q367.23438 344.7625 367.23438 346.2469Q367.23438 347.45 366.875 348.1375Q366.51562 348.825 365.8125 349.21564Q365.125 349.59064 364.3125 349.59064Q363.01562 349.59064 362.20312 348.7625Q361.40625 347.91876 361.40625 346.34064ZM362.48438 346.34064Q362.48438 347.52814 363.0 348.1219Q363.53125 348.71564 364.3125 348.71564Q365.10938 348.71564 365.625 348.1219Q366.14062 347.52814 366.14062 346.3094Q366.14062 345.15314 365.60938 344.5594Q365.09375 343.96564 364.3125 343.96564Q363.53125 343.96564 363.0 344.5594Q362.48438 345.1375 362.48438 346.34064ZM368.79688 349.45L368.79688 343.23126L369.73438 343.23126L369.73438 344.10626Q370.42188 343.09064 371.71875 343.09064Q372.28125 343.09064 372.75 343.29376Q373.23438 343.4969 373.46875 343.825Q373.70312 344.15314 373.79688 344.59064Q373.84375 344.8875 373.84375 345.6219L373.84375 349.45L372.79688 349.45L372.79688 345.66876Q372.79688 345.0125 372.67188 344.7Q372.54688 344.3875 372.23438 344.2Q371.92188 343.9969 371.5 343.9969Q370.82812 343.9969 370.32812 344.4344Q369.84375 344.85626 369.84375 346.04376L369.84375 349.45L368.79688 349.45Z" fill-rule="nonzero"/><path fill="#000000" d="M29.550013 269.23022L20.956263 269.23022L20.956263 263.0271L21.971888 263.0271L21.971888 268.0896L24.596888 268.0896L24.596888 263.3396L25.612513 263.3396L25.612513 268.0896L28.534388 268.0896L28.534388 262.82397L29.550013 262.82397L29.550013 269.23022ZM29.550013 262.0896L26.315638 259.82397L23.331263 261.91772L23.331263 260.60522L24.784388 259.6521Q25.206263 259.38647 25.487513 259.2146Q25.096888 258.9646 24.800013 258.74585L23.331263 257.69897L23.331263 256.43335L26.253138 258.5896L29.550013 256.2771L29.550013 257.55835L27.612513 258.8396L27.096888 259.18335L29.550013 260.82397L29.550013 262.0896ZM27.550013 251.13646L27.675013 250.04271Q28.628138 250.29271 29.159388 250.99583Q29.690638 251.69896 29.690638 252.77708Q29.690638 254.13646 28.846888 254.94896Q28.003138 255.74583 26.487513 255.74583Q24.925013 255.74583 24.065638 254.93333Q23.190638 254.12083 23.190638 252.83958Q23.190638 251.58958 24.034388 250.80833Q24.878138 250.01146 26.425013 250.01146Q26.518763 250.01146 26.706263 250.01146L26.706263 254.65208Q27.737513 254.58958 28.284388 254.07396Q28.815638 253.55833 28.815638 252.77708Q28.815638 252.19896 28.518763 251.79271Q28.206263 251.37083 27.550013 251.13646ZM25.846888 254.58958L25.846888 251.12083Q25.050013 251.18333 24.659388 251.51146Q24.050013 252.02708 24.050013 252.82396Q24.050013 253.55833 24.534388 254.05833Q25.018763 254.54271 25.846888 254.58958ZM27.268763 244.32396L27.409388 243.29271Q28.471888 243.46458 29.081263 244.16771Q29.690638 244.87083 29.690638 245.88646Q29.690638 247.16771 28.862513 247.94896Q28.018763 248.71458 26.456263 248.71458Q25.456263 248.71458 24.706263 248.38646Q23.940638 248.04271 23.565638 247.37083Q23.190638 246.68333 23.190638 245.87083Q23.190638 244.87083 23.706263 244.23021Q24.206263 243.57396 25.159388 243.38646L25.315638 244.41771Q24.690638 244.55833 24.378138 244.93333Q24.050013 245.30833 24.050013 245.83958Q24.050013 246.63646 24.628138 247.13646Q25.190638 247.63646 26.425013 247.63646Q27.690638 247.63646 28.253138 247.15208Q28.815638 246.66771 28.815638 245.90208Q28.815638 245.27708 28.440638 244.87083Q28.065638 244.44896 27.268763 244.32396ZM29.550013 238.30833L28.628138 238.30833Q29.690638 239.04271 29.690638 240.29271Q29.690638 240.83958 29.487513 241.32396Q29.268763 241.79271 28.956263 242.02708Q28.628138 242.26146 28.159388 242.35521Q27.862513 242.41771 27.175013 242.41771L23.331263 242.41771L23.331263 241.35521L26.784388 241.35521Q27.596888 241.35521 27.893763 241.29271Q28.300013 241.19896 28.550013 240.88646Q28.784388 240.55833 28.784388 240.07396Q28.784388 239.60521 28.550013 239.19896Q28.300013 238.77708 27.878138 238.60521Q27.456263 238.41771 26.659388 238.41771L23.331263 238.41771L23.331263 237.37083L29.550013 237.37083L29.550013 238.30833ZM28.612513 233.08958L29.534388 232.93333Q29.628138 233.38646 29.628138 233.73021Q29.628138 234.30833 29.456263 234.62083Q29.268763 234.93333 28.971888 235.07396Q28.675013 235.19896 27.721888 235.19896L24.143763 235.19896L24.143763 235.96458L23.331263 235.96458L23.331263 235.19896L21.784388 235.19896L21.159388 234.15208L23.331263 234.15208L23.331263 233.08958L24.143763 233.08958L24.143763 234.15208L27.784388 234.15208Q28.237513 234.15208 28.362513 234.10521Q28.487513 234.04271 28.565638 233.91771Q28.643763 233.79271 28.643763 233.55833Q28.643763 233.37083 28.612513 233.08958ZM22.175013 232.38646L20.956263 232.38646L20.956263 231.32396L22.175013 231.32396L22.175013 232.38646ZM29.550013 232.38646L23.331263 232.38646L23.331263 231.32396L29.550013 231.32396L29.550013 232.38646ZM26.440638 229.77708Q24.706263 229.77708 23.878138 228.82396Q23.190638 228.02708 23.190638 226.87083Q23.190638 225.58958 24.034388 224.77708Q24.862513 223.94896 26.346888 223.94896Q27.550013 223.94896 28.237513 224.30833Q28.925013 224.66771 29.315638 225.37083Q29.690638 226.05833 29.690638 226.87083Q29.690638 228.16771 28.862513 228.98021Q28.018763 229.77708 26.440638 229.77708ZM26.440638 228.69896Q27.628138 228.69896 28.221888 228.18333Q28.815638 227.65208 28.815638 226.87083Q28.815638 226.07396 28.221888 225.55833Q27.628138 225.04271 26.409388 225.04271Q25.253138 225.04271 24.659388 225.57396Q24.065638 226.08958 24.065638 226.87083Q24.065638 227.65208 24.659388 228.18333Q25.237513 228.69896 26.440638 228.69896ZM29.550013 222.38646L23.331263 222.38646L23.331263 221.44896L24.206263 221.44896Q23.190638 220.76146 23.190638 219.46458Q23.190638 218.90208 23.393763 218.43333Q23.596888 217.94896 23.925013 217.71458Q24.253138 217.48021 24.690638 217.38646Q24.987513 217.33958 25.721888 217.33958L29.550013 217.33958L29.550013 218.38646L25.768763 218.38646Q25.112513 218.38646 24.800013 218.51146Q24.487513 218.63646 24.300013 218.94896Q24.096888 219.26146 24.096888 219.68333Q24.096888 220.35521 24.534388 220.85521Q24.956263 221.33958 26.143763 221.33958L29.550013 221.33958L29.550013 222.38646ZM28.612513 210.08958L29.534388 209.93333Q29.628138 210.38646 29.628138 210.73021Q29.628138 211.30833 29.456263 211.62083Q29.268763 211.93333 28.971888 212.07396Q28.675013 212.19896 27.721888 212.19896L24.143763 212.19896L24.143763 212.96458L23.331263 212.96458L23.331263 212.19896L21.784388 212.19896L21.159388 211.15208L23.331263 211.15208L23.331263 210.08958L24.143763 210.08958L24.143763 211.15208L27.784388 211.15208Q28.237513 211.15208 28.362513 211.10521Q28.487513 211.04271 28.565638 210.91771Q28.643763 210.79271 28.643763 210.55833Q28.643763 210.37083 28.612513 210.08958ZM22.175013 209.38646L20.956263 209.38646L20.956263 208.32396L22.175013 208.32396L22.175013 209.38646ZM29.550013 209.38646L23.331263 209.38646L23.331263 208.32396L29.550013 208.32396L29.550013 209.38646ZM29.550013 206.38646L23.331263 206.38646L23.331263 205.44896L24.206263 205.44896Q23.737513 205.15208 23.471888 204.66771Q23.190638 204.18333 23.190638 203.55833Q23.190638 202.87083 23.471888 202.43333Q23.753138 201.98021 24.268763 201.80833Q23.190638 201.05833 23.190638 199.88646Q23.190638 198.94896 23.706263 198.46458Q24.206263 197.96458 25.284388 197.96458L29.550013 197.96458L29.550013 199.01146L25.628138 199.01146Q25.003138 199.01146 24.721888 199.12083Q24.440638 199.21458 24.268763 199.48021Q24.096888 199.74583 24.096888 200.12083Q24.096888 200.77708 24.534388 201.21458Q24.971888 201.63646 25.940638 201.63646L29.550013 201.63646L29.550013 202.69896L25.503138 202.69896Q24.800013 202.69896 24.456263 202.96458Q24.096888 203.21458 24.096888 203.79271Q24.096888 204.24583 24.331263 204.62083Q24.565638 204.99583 25.018763 205.16771Q25.471888 205.33958 26.315638 205.33958L29.550013 205.33958L29.550013 206.38646ZM27.550013 192.13646L27.675013 191.04271Q28.628138 191.29271 29.159388 191.99583Q29.690638 192.69896 29.690638 193.77708Q29.690638 195.13646 28.846888 195.94896Q28.003138 196.74583 26.487513 196.74583Q24.925013 196.74583 24.065638 195.93333Q23.190638 195.12083 23.190638 193.83958Q23.190638 192.58958 24.034388 191.80833Q24.878138 191.01146 26.425013 191.01146Q26.518763 191.01146 26.706263 191.01146L26.706263 195.65208Q27.737513 195.58958 28.284388 195.07396Q28.815638 194.55833 28.815638 193.77708Q28.815638 193.19896 28.518763 192.79271Q28.206263 192.37083 27.550013 192.13646ZM25.846888 195.58958L25.846888 192.12083Q25.050013 192.18333 24.659388 192.51146Q24.050013 193.02708 24.050013 193.82396Q24.050013 194.55833 24.534388 195.05833Q25.018763 195.54271 25.846888 195.58958ZM32.08126 184.37083Q30.971888 185.24583 29.503138 185.85521Q28.018763 186.44896 26.440638 186.44896Q25.050013 186.44896 23.768763 186.01146Q22.284388 185.48021 20.815638 184.37083L20.815638 183.62083Q22.034388 184.32396 22.550013 184.55833Q23.362513 184.91771 24.237513 185.12083Q25.331263 185.37083 26.440638 185.37083Q29.268763 185.37083 32.08126 183.62083L32.08126 184.37083ZM29.550013 182.38646L23.331263 182.38646L23.331263 181.44896L24.206263 181.44896Q23.190638 180.76146 23.190638 179.46458Q23.190638 178.90208 23.393763 178.43333Q23.596888 177.94896 23.925013 177.71458Q24.253138 177.48021 24.690638 177.38646Q24.987513 177.33958 25.721888 177.33958L29.550013 177.33958L29.550013 178.38646L25.768763 178.38646Q25.112513 178.38646 24.800013 178.51146Q24.487513 178.63646 24.300013 178.94896Q24.096888 179.26146 24.096888 179.68333Q24.096888 180.35521 24.534388 180.85521Q24.956263 181.33958 26.143763 181.33958L29.550013 181.33958L29.550013 182.38646ZM28.784388 171.32396Q29.284388 171.91771 29.487513 172.46458Q29.690638 172.99583 29.690638 173.62083Q29.690638 174.65208 29.190638 175.19896Q28.690638 175.74583 27.909388 175.74583Q27.456263 175.74583 27.081263 175.54271Q26.690638 175.33958 26.471888 174.99583Q26.237513 174.65208 26.128138 174.23021Q26.034388 173.93333 25.956263 173.29271Q25.815638 172.02708 25.596888 171.41771Q25.378138 171.41771 25.331263 171.41771Q24.675013 171.41771 24.409388 171.71458Q24.065638 172.12083 24.065638 172.91771Q24.065638 173.65208 24.331263 174.01146Q24.581263 174.37083 25.237513 174.54271L25.096888 175.57396Q24.440638 175.43333 24.034388 175.10521Q23.628138 174.77708 23.409388 174.16771Q23.190638 173.55833 23.190638 172.76146Q23.190638 171.96458 23.378138 171.46458Q23.565638 170.96458 23.846888 170.73021Q24.128138 170.49583 24.565638 170.40208Q24.831263 170.35521 25.534388 170.35521L26.940638 170.35521Q28.409388 170.35521 28.800013 170.29271Q29.190638 170.21458 29.550013 170.01146L29.550013 171.12083Q29.221888 171.27708 28.784388 171.32396ZM26.425013 171.41771Q26.659388 171.99583 26.831263 173.13646Q26.925013 173.79271 27.050013 174.05833Q27.159388 174.32396 27.378138 174.48021Q27.596888 174.62083 27.878138 174.62083Q28.300013 174.62083 28.581263 174.30833Q28.862513 173.98021 28.862513 173.37083Q28.862513 172.76146 28.596888 172.29271Q28.331263 171.80833 27.862513 171.58958Q27.503138 171.41771 26.815638 171.41771L26.425013 171.41771ZM29.550013 168.38646L23.331263 168.38646L23.331263 167.44896L24.206263 167.44896Q23.190638 166.76146 23.190638 165.46458Q23.190638 164.90208 23.393763 164.43333Q23.596888 163.94896 23.925013 163.71458Q24.253138 163.48021 24.690638 163.38646Q24.987513 163.33958 25.721888 163.33958L29.550013 163.33958L29.550013 164.38646L25.768763 164.38646Q25.112513 164.38646 24.800013 164.51146Q24.487513 164.63646 24.300013 164.94896Q24.096888 165.26146 24.096888 165.68333Q24.096888 166.35521 24.534388 166.85521Q24.956263 167.33958 26.143763 167.33958L29.550013 167.33958L29.550013 168.38646ZM26.440638 161.77708Q24.706263 161.77708 23.878138 160.82396Q23.190638 160.02708 23.190638 158.87083Q23.190638 157.58958 24.034388 156.77708Q24.862513 155.94896 26.346888 155.94896Q27.550013 155.94896 28.237513 156.30833Q28.925013 156.66771 29.315638 157.37083Q29.690638 158.05833 29.690638 158.87083Q29.690638 160.16771 28.862513 160.98021Q28.018763 161.77708 26.440638 161.77708ZM26.440638 160.69896Q27.628138 160.69896 28.221888 160.18333Q28.815638 159.65208 28.815638 158.87083Q28.815638 158.07396 28.221888 157.55833Q27.628138 157.04271 26.409388 157.04271Q25.253138 157.04271 24.659388 157.57396Q24.065638 158.08958 24.065638 158.87083Q24.065638 159.65208 24.659388 160.18333Q25.237513 160.69896 26.440638 160.69896ZM27.690638 154.80833L27.534388 153.77708Q28.159388 153.68333 28.487513 153.29271Q28.815638 152.88646 28.815638 152.15208Q28.815638 151.43333 28.534388 151.08958Q28.237513 150.73021 27.831263 150.73021Q27.471888 150.73021 27.268763 151.04271Q27.128138 151.26146 26.909388 152.12083Q26.612513 153.27708 26.409388 153.73021Q26.190638 154.16771 25.815638 154.40208Q25.440638 154.63646 24.971888 154.63646Q24.565638 154.63646 24.206263 154.44896Q23.846888 154.26146 23.612513 153.93333Q23.440638 153.68333 23.315638 153.26146Q23.190638 152.83958 23.190638 152.33958Q23.190638 151.62083 23.409388 151.07396Q23.612513 150.51146 23.971888 150.24583Q24.331263 149.98021 24.925013 149.88646L25.065638 150.91771Q24.596888 150.98021 24.331263 151.32396Q24.050013 151.65208 24.050013 152.27708Q24.050013 152.99583 24.300013 153.30833Q24.534388 153.62083 24.862513 153.62083Q25.065638 153.62083 25.221888 153.49583Q25.393763 153.35521 25.503138 153.08958Q25.565638 152.93333 25.768763 152.15208Q26.081263 151.02708 26.268763 150.58958Q26.456263 150.15208 26.815638 149.90208Q27.175013 149.65208 27.721888 149.65208Q28.253138 149.65208 28.721888 149.96458Q29.175013 150.26146 29.440638 150.83958Q29.690638 151.41771 29.690638 152.15208Q29.690638 153.37083 29.190638 154.01146Q28.675013 154.63646 27.690638 154.80833ZM27.550013 144.13646L27.675013 143.04271Q28.628138 143.29271 29.159388 143.99583Q29.690638 144.69896 29.690638 145.77708Q29.690638 147.13646 28.846888 147.94896Q28.003138 148.74583 26.487513 148.74583Q24.925013 148.74583 24.065638 147.93333Q23.190638 147.12083 23.190638 145.83958Q23.190638 144.58958 24.034388 143.80833Q24.878138 143.01146 26.425013 143.01146Q26.518763 143.01146 26.706263 143.01146L26.706263 147.65208Q27.737513 147.58958 28.284388 147.07396Q28.815638 146.55833 28.815638 145.77708Q28.815638 145.19896 28.518763 144.79271Q28.206263 144.37083 27.550013 144.13646ZM25.846888 147.58958L25.846888 144.12083Q25.050013 144.18333 24.659388 144.51146Q24.050013 145.02708 24.050013 145.82396Q24.050013 146.55833 24.534388 147.05833Q25.018763 147.54271 25.846888 147.58958ZM27.268763 137.32396L27.409388 136.29271Q28.471888 136.46458 29.081263 137.16771Q29.690638 137.87083 29.690638 138.88646Q29.690638 140.16771 28.862513 140.94896Q28.018763 141.71458 26.456263 141.71458Q25.456263 141.71458 24.706263 141.38646Q23.940638 141.04271 23.565638 140.37083Q23.190638 139.68333 23.190638 138.87083Q23.190638 137.87083 23.706263 137.23021Q24.206263 136.57396 25.159388 136.38646L25.315638 137.41771Q24.690638 137.55833 24.378138 137.93333Q24.050013 138.30833 24.050013 138.83958Q24.050013 139.63646 24.628138 140.13646Q25.190638 140.63646 26.425013 140.63646Q27.690638 140.63646 28.253138 140.15208Q28.815638 139.66771 28.815638 138.90208Q28.815638 138.27708 28.440638 137.87083Q28.065638 137.44896 27.268763 137.32396ZM26.440638 135.77708Q24.706263 135.77708 23.878138 134.82396Q23.190638 134.02708 23.190638 132.87083Q23.190638 131.58958 24.034388 130.77708Q24.862513 129.94896 26.346888 129.94896Q27.550013 129.94896 28.237513 130.30833Q28.925013 130.66771 29.315638 131.37083Q29.690638 132.05833 29.690638 132.87083Q29.690638 134.16771 28.862513 134.98021Q28.018763 135.77708 26.440638 135.77708ZM26.440638 134.69896Q27.628138 134.69896 28.221888 134.18333Q28.815638 133.65208 28.815638 132.87083Q28.815638 132.07396 28.221888 131.55833Q27.628138 131.04271 26.409388 131.04271Q25.253138 131.04271 24.659388 131.57396Q24.065638 132.08958 24.065638 132.87083Q24.065638 133.65208 24.659388 134.18333Q25.237513 134.69896 26.440638 134.69896ZM29.550013 128.38646L23.331263 128.38646L23.331263 127.44896L24.206263 127.44896Q23.190638 126.76146 23.190638 125.464584Q23.190638 124.902084 23.393763 124.433334Q23.596888 123.94896 23.925013 123.714584Q24.253138 123.48021 24.690638 123.38646Q24.987513 123.339584 25.721888 123.339584L29.550013 123.339584L29.550013 124.38646L25.768763 124.38646Q25.112513 124.38646 24.800013 124.51146Q24.487513 124.63646 24.300013 124.94896Q24.096888 125.26146 24.096888 125.683334Q24.096888 126.35521 24.534388 126.85521Q24.956263 127.339584 26.143763 127.339584L29.550013 127.339584L29.550013 128.38646ZM29.550013 117.35521L28.768763 117.35521Q29.690638 117.94896 29.690638 119.089584Q29.690638 119.839584 29.284388 120.464584Q28.862513 121.089584 28.128138 121.433334Q27.393763 121.777084 26.440638 121.777084Q25.518763 121.777084 24.753138 121.464584Q23.987513 121.152084 23.596888 120.527084Q23.190638 119.902084 23.190638 119.13646Q23.190638 118.57396 23.425013 118.13646Q23.659388 117.69896 24.034388 117.41771L20.956263 117.41771L20.956263 116.370834L29.550013 116.370834L29.550013 117.35521ZM26.440638 120.683334Q27.643763 120.683334 28.237513 120.183334Q28.815638 119.683334 28.815638 118.995834Q28.815638 118.308334 28.253138 117.82396Q27.690638 117.339584 26.534388 117.339584Q25.253138 117.339584 24.659388 117.839584Q24.065638 118.32396 24.065638 119.04271Q24.065638 119.745834 24.643763 120.214584Q25.206263 120.683334 26.440638 120.683334ZM27.690638 114.808334L27.534388 113.777084Q28.159388 113.683334 28.487513 113.29271Q28.815638 112.88646 28.815638 112.152084Q28.815638 111.433334 28.534388 111.089584Q28.237513 110.73021 27.831263 110.73021Q27.471888 110.73021 27.268763 111.04271Q27.128138 111.26146 26.909388 112.120834Q26.612513 113.277084 26.409388 113.73021Q26.190638 114.16771 25.815638 114.402084Q25.440638 114.63646 24.971888 114.63646Q24.565638 114.63646 24.206263 114.44896Q23.846888 114.26146 23.612513 113.933334Q23.440638 113.683334 23.315638 113.26146Q23.190638 112.839584 23.190638 112.339584Q23.190638 111.620834 23.409388 111.07396Q23.612513 110.51146 23.971888 110.245834Q24.331263 109.98021 24.925013 109.88646L25.065638 110.91771Q24.596888 110.98021 24.331263 111.32396Q24.050013 111.652084 24.050013 112.277084Q24.050013 112.995834 24.300013 113.308334Q24.534388 113.620834 24.862513 113.620834Q25.065638 113.620834 25.221888 113.495834Q25.393763 113.35521 25.503138 113.089584Q25.565638 112.933334 25.768763 112.152084Q26.081263 111.027084 26.268763 110.589584Q26.456263 110.152084 26.815638 109.902084Q27.175013 109.652084 27.721888 109.652084Q28.253138 109.652084 28.721888 109.964584Q29.175013 110.26146 29.440638 110.839584Q29.690638 111.41771 29.690638 112.152084Q29.690638 113.370834 29.190638 114.01146Q28.675013 114.63646 27.690638 114.808334ZM32.08126 107.69896L32.08126 108.44896Q29.268763 106.69896 26.440638 106.69896Q25.346888 106.69896 24.253138 106.94896Q23.378138 107.152084 22.565638 107.51146Q22.050013 107.745834 20.815638 108.44896L20.815638 107.69896Q22.284388 106.60521 23.768763 106.07396Q25.050013 105.620834 26.440638 105.620834Q28.018763 105.620834 29.503138 106.23021Q30.971888 106.839584 32.08126 107.69896Z" fill-rule="nonzero"/><path fill="#000000" d="M51.05 300.21564Q51.05 298.6844 51.3625 297.7625Q51.675 296.825 52.284374 296.325Q52.909374 295.825 53.846874 295.825Q54.534374 295.825 55.05 296.10626Q55.58125 296.3875 55.925 296.91876Q56.26875 297.4344 56.45625 298.1844Q56.64375 298.9344 56.64375 300.21564Q56.64375 301.73126 56.33125 302.65314Q56.034374 303.575 55.409374 304.09064Q54.8 304.59064 53.846874 304.59064Q52.6125 304.59064 51.89375 303.7Q51.05 302.6375 51.05 300.21564ZM52.128124 300.21564Q52.128124 302.325 52.628124 303.02814Q53.128124 303.73126 53.846874 303.73126Q54.58125 303.73126 55.065624 303.02814Q55.565624 302.325 55.565624 300.21564Q55.565624 298.09064 55.065624 297.40314Q54.58125 296.7 53.83125 296.7Q53.1125 296.7 52.675 297.3094Q52.128124 298.09064 52.128124 300.21564ZM58.64375 304.45L58.64375 303.2469L59.846874 303.2469L59.846874 304.45L58.64375 304.45ZM61.05 300.21564Q61.05 298.6844 61.3625 297.7625Q61.675 296.825 62.284374 296.325Q62.909374 295.825 63.846874 295.825Q64.53438 295.825 65.05 296.10626Q65.58125 296.3875 65.925 296.91876Q66.26875 297.4344 66.45625 298.1844Q66.64375 298.9344 66.64375 300.21564Q66.64375 301.73126 66.33125 302.65314Q66.03438 303.575 65.40938 304.09064Q64.8 304.59064 63.846874 304.59064Q62.6125 304.59064 61.89375 303.7Q61.05 302.6375 61.05 300.21564ZM62.128124 300.21564Q62.128124 302.325 62.628124 303.02814Q63.128124 303.73126 63.846874 303.73126Q64.58125 303.73126 65.06563 303.02814Q65.56563 302.325 65.56563 300.21564Q65.56563 298.09064 65.06563 297.40314Q64.58125 296.7 63.83125 296.7Q63.1125 296.7 62.675 297.3094Q62.128124 298.09064 62.128124 300.21564ZM68.05 300.21564Q68.05 298.6844 68.3625 297.7625Q68.675 296.825 69.28438 296.325Q69.90938 295.825 70.84688 295.825Q71.53438 295.825 72.05 296.10626Q72.58125 296.3875 72.925 296.91876Q73.26875 297.4344 73.45625 298.1844Q73.64375 298.9344 73.64375 300.21564Q73.64375 301.73126 73.33125 302.65314Q73.03438 303.575 72.40938 304.09064Q71.8 304.59064 70.84688 304.59064Q69.6125 304.59064 68.89375 303.7Q68.05 302.6375 68.05 300.21564ZM69.12813 300.21564Q69.12813 302.325 69.62813 303.02814Q70.12813 303.73126 70.84688 303.73126Q71.58125 303.73126 72.06563 303.02814Q72.56563 302.325 72.56563 300.21564Q72.56563 298.09064 72.06563 297.40314Q71.58125 296.7 70.83125 296.7Q70.1125 296.7 69.675 297.3094Q69.12813 298.09064 69.12813 300.21564ZM75.50313 304.45L75.50313 295.85626L81.70625 295.85626L81.70625 296.8719L76.64375 296.8719L76.64375 299.4969L81.39375 299.4969L81.39375 300.5125L76.64375 300.5125L76.64375 303.4344L81.90938 303.4344L81.90938 304.45L75.50313 304.45ZM85.55 303.0594L85.55 300.7L83.22188 300.7L83.22188 299.71564L85.55 299.71564L85.55 297.3875L86.55 297.3875L86.55 299.71564L88.89375 299.71564L88.89375 300.7L86.55 300.7L86.55 303.0594L85.55 303.0594ZM90.05 300.21564Q90.05 298.6844 90.3625 297.7625Q90.675 296.825 91.28438 296.325Q91.90938 295.825 92.84688 295.825Q93.53438 295.825 94.05 296.10626Q94.58125 296.3875 94.925 296.91876Q95.26875 297.4344 95.45625 298.1844Q95.64375 298.9344 95.64375 300.21564Q95.64375 301.73126 95.33125 302.65314Q95.03438 303.575 94.40938 304.09064Q93.8 304.59064 92.84688 304.59064Q91.6125 304.59064 90.89375 303.7Q90.05 302.6375 90.05 300.21564ZM91.12813 300.21564Q91.12813 302.325 91.62813 303.02814Q92.12813 303.73126 92.84688 303.73126Q93.58125 303.73126 94.06563 303.02814Q94.56563 302.325 94.56563 300.21564Q94.56563 298.09064 94.06563 297.40314Q93.58125 296.7 92.83125 296.7Q92.1125 296.7 91.675 297.3094Q91.12813 298.09064 91.12813 300.21564ZM97.05 300.21564Q97.05 298.6844 97.3625 297.7625Q97.675 296.825 98.28438 296.325Q98.90938 295.825 99.84688 295.825Q100.53438 295.825 101.05 296.10626Q101.58125 296.3875 101.925 296.91876Q102.26875 297.4344 102.45625 298.1844Q102.64375 298.9344 102.64375 300.21564Q102.64375 301.73126 102.33125 302.65314Q102.03438 303.575 101.40938 304.09064Q100.8 304.59064 99.84688 304.59064Q98.6125 304.59064 97.89375 303.7Q97.05 302.6375 97.05 300.21564ZM98.12813 300.21564Q98.12813 302.325 98.62813 303.02814Q99.12813 303.73126 99.84688 303.73126Q100.58125 303.73126 101.06563 303.02814Q101.56563 302.325 101.56563 300.21564Q101.56563 298.09064 101.06563 297.40314Q100.58125 296.7 99.83125 296.7Q99.1125 296.7 98.675 297.3094Q98.12813 298.09064 98.12813 300.21564Z" fill-rule="nonzero"/><path fill="#000000" d="M56.596874 243.80104L56.596874 244.81667L50.909374 244.81667Q50.909374 244.44167 51.034374 244.08229Q51.253124 243.50417 51.721874 242.94167Q52.20625 242.37917 53.1125 241.64479Q54.51875 240.48854 55.003124 239.81667Q55.503124 239.14479 55.503124 238.55104Q55.503124 237.92604 55.05 237.50417Q54.596874 237.06667 53.878124 237.06667Q53.1125 237.06667 52.659374 237.51979Q52.20625 237.97292 52.190624 238.78542L51.1125 238.67604Q51.221874 237.45729 51.940624 236.83229Q52.675 236.19167 53.909374 236.19167Q55.14375 236.19167 55.8625 236.87917Q56.58125 237.56667 56.58125 238.58229Q56.58125 239.09792 56.3625 239.59792Q56.159374 240.08229 55.659374 240.64479Q55.175 241.19167 54.05 242.14479Q53.096874 242.94167 52.815624 243.23854Q52.55 243.51979 52.378124 243.80104L56.596874 243.80104ZM58.64375 244.81667L58.64375 243.61354L59.846874 243.61354L59.846874 244.81667L58.64375 244.81667ZM61.05 242.56667L62.159374 242.47292Q62.284374 243.28542 62.721874 243.69167Q63.175 244.09792 63.815624 244.09792Q64.56563 244.09792 65.09688 243.51979Q65.62813 242.94167 65.62813 242.00417Q65.62813 241.09792 65.1125 240.58229Q64.6125 240.05104 63.784374 240.05104Q63.284374 240.05104 62.8625 240.28542Q62.45625 240.51979 62.221874 240.87917L61.2375 240.75417L62.065624 236.34792L66.34688 236.34792L66.34688 237.34792L62.909374 237.34792L62.45625 239.66042Q63.221874 239.11354 64.06563 239.11354Q65.19063 239.11354 65.95625 239.89479Q66.7375 240.67604 66.7375 241.91042Q66.7375 243.06667 66.06563 243.92604Q65.2375 244.95729 63.815624 244.95729Q62.64375 244.95729 61.89375 244.30104Q61.159374 243.64479 61.05 242.56667ZM68.05 240.58229Q68.05 239.05104 68.3625 238.12917Q68.675 237.19167 69.28438 236.69167Q69.90938 236.19167 70.84688 236.19167Q71.53438 236.19167 72.05 236.47292Q72.58125 236.75417 72.925 237.28542Q73.26875 237.80104 73.45625 238.55104Q73.64375 239.30104 73.64375 240.58229Q73.64375 242.09792 73.33125 243.01979Q73.03438 243.94167 72.40938 244.45729Q71.8 244.95729 70.84688 244.95729Q69.6125 244.95729 68.89375 244.06667Q68.05 243.00417 68.05 240.58229ZM69.12813 240.58229Q69.12813 242.69167 69.62813 243.39479Q70.12813 244.09792 70.84688 244.09792Q71.58125 244.09792 72.06563 243.39479Q72.56563 242.69167 72.56563 240.58229Q72.56563 238.45729 72.06563 237.76979Q71.58125 237.06667 70.83125 237.06667Q70.1125 237.06667 69.675 237.67604Q69.12813 238.45729 69.12813 240.58229ZM75.50313 244.81667L75.50313 236.22292L81.70625 236.22292L81.70625 237.23854L76.64375 237.23854L76.64375 239.86354L81.39375 239.86354L81.39375 240.87917L76.64375 240.87917L76.64375 243.80104L81.90938 243.80104L81.90938 244.81667L75.50313 244.81667ZM85.55 243.42604L85.55 241.06667L83.22188 241.06667L83.22188 240.08229L85.55 240.08229L85.55 237.75417L86.55 237.75417L86.55 240.08229L88.89375 240.08229L88.89375 241.06667L86.55 241.06667L86.55 243.42604L85.55 243.42604ZM90.05 240.58229Q90.05 239.05104 90.3625 238.12917Q90.675 237.19167 91.28438 236.69167Q91.90938 236.19167 92.84688 236.19167Q93.53438 236.19167 94.05 236.47292Q94.58125 236.75417 94.925 237.28542Q95.26875 237.80104 95.45625 238.55104Q95.64375 239.30104 95.64375 240.58229Q95.64375 242.09792 95.33125 243.01979Q95.03438 243.94167 94.40938 244.45729Q93.8 244.95729 92.84688 244.95729Q91.6125 244.95729 90.89375 244.06667Q90.05 243.00417 90.05 240.58229ZM91.12813 240.58229Q91.12813 242.69167 91.62813 243.39479Q92.12813 244.09792 92.84688 244.09792Q93.58125 244.09792 94.06563 243.39479Q94.56563 242.69167 94.56563 240.58229Q94.56563 238.45729 94.06563 237.76979Q93.58125 237.06667 92.83125 237.06667Q92.1125 237.06667 91.675 237.67604Q91.12813 238.45729 91.12813 240.58229ZM97.1125 237.34792L97.1125 236.33229L102.675 236.33229L102.675 237.16042Q101.8625 238.03542 101.05 239.48854Q100.25313 240.92604 99.81563 242.45729Q99.4875 243.53542 99.40938 244.81667L98.31563 244.81667Q98.33125 243.80104 98.70625 242.36354Q99.09688 240.92604 99.8 239.59792Q100.51875 238.26979 101.33125 237.34792L97.1125 237.34792Z" fill-rule="nonzero"/><path fill="#000000" d="M51.05 182.93333L52.159374 182.83958Q52.284374 183.65208 52.721874 184.05833Q53.175 184.46458 53.815624 184.46458Q54.565624 184.46458 55.096874 183.88646Q55.628124 183.30833 55.628124 182.37083Q55.628124 181.46458 55.1125 180.94896Q54.6125 180.41771 53.784374 180.41771Q53.284374 180.41771 52.8625 180.65208Q52.45625 180.88646 52.221874 181.24583L51.2375 181.12083L52.065624 176.71458L56.346874 176.71458L56.346874 177.71458L52.909374 177.71458L52.45625 180.02708Q53.221874 179.48021 54.065624 179.48021Q55.190624 179.48021 55.95625 180.26146Q56.7375 181.04271 56.7375 182.27708Q56.7375 183.43333 56.065624 184.29271Q55.2375 185.32396 53.815624 185.32396Q52.64375 185.32396 51.89375 184.66771Q51.159374 184.01146 51.05 182.93333ZM58.64375 185.18333L58.64375 183.98021L59.846874 183.98021L59.846874 185.18333L58.64375 185.18333ZM61.05 180.94896Q61.05 179.41771 61.3625 178.49583Q61.675 177.55833 62.284374 177.05833Q62.909374 176.55833 63.846874 176.55833Q64.53438 176.55833 65.05 176.83958Q65.58125 177.12083 65.925 177.65208Q66.26875 178.16771 66.45625 178.91771Q66.64375 179.66771 66.64375 180.94896Q66.64375 182.46458 66.33125 183.38646Q66.03438 184.30833 65.40938 184.82396Q64.8 185.32396 63.846874 185.32396Q62.6125 185.32396 61.89375 184.43333Q61.05 183.37083 61.05 180.94896ZM62.128124 180.94896Q62.128124 183.05833 62.628124 183.76146Q63.128124 184.46458 63.846874 184.46458Q64.58125 184.46458 65.06563 183.76146Q65.56563 183.05833 65.56563 180.94896Q65.56563 178.82396 65.06563 178.13646Q64.58125 177.43333 63.83125 177.43333Q63.1125 177.43333 62.675 178.04271Q62.128124 178.82396 62.128124 180.94896ZM68.05 180.94896Q68.05 179.41771 68.3625 178.49583Q68.675 177.55833 69.28438 177.05833Q69.90938 176.55833 70.84688 176.55833Q71.53438 176.55833 72.05 176.83958Q72.58125 177.12083 72.925 177.65208Q73.26875 178.16771 73.45625 178.91771Q73.64375 179.66771 73.64375 180.94896Q73.64375 182.46458 73.33125 183.38646Q73.03438 184.30833 72.40938 184.82396Q71.8 185.32396 70.84688 185.32396Q69.6125 185.32396 68.89375 184.43333Q68.05 183.37083 68.05 180.94896ZM69.12813 180.94896Q69.12813 183.05833 69.62813 183.76146Q70.12813 184.46458 70.84688 184.46458Q71.58125 184.46458 72.06563 183.76146Q72.56563 183.05833 72.56563 180.94896Q72.56563 178.82396 72.06563 178.13646Q71.58125 177.43333 70.83125 177.43333Q70.1125 177.43333 69.675 178.04271Q69.12813 178.82396 69.12813 180.94896ZM75.50313 185.18333L75.50313 176.58958L81.70625 176.58958L81.70625 177.60521L76.64375 177.60521L76.64375 180.23021L81.39375 180.23021L81.39375 181.24583L76.64375 181.24583L76.64375 184.16771L81.90938 184.16771L81.90938 185.18333L75.50313 185.18333ZM85.55 183.79271L85.55 181.43333L83.22188 181.43333L83.22188 180.44896L85.55 180.44896L85.55 178.12083L86.55 178.12083L86.55 180.44896L88.89375 180.44896L88.89375 181.43333L86.55 181.43333L86.55 183.79271L85.55 183.79271ZM90.05 180.94896Q90.05 179.41771 90.3625 178.49583Q90.675 177.55833 91.28438 177.05833Q91.90938 176.55833 92.84688 176.55833Q93.53438 176.55833 94.05 176.83958Q94.58125 177.12083 94.925 177.65208Q95.26875 178.16771 95.45625 178.91771Q95.64375 179.66771 95.64375 180.94896Q95.64375 182.46458 95.33125 183.38646Q95.03438 184.30833 94.40938 184.82396Q93.8 185.32396 92.84688 185.32396Q91.6125 185.32396 90.89375 184.43333Q90.05 183.37083 90.05 180.94896ZM91.12813 180.94896Q91.12813 183.05833 91.62813 183.76146Q92.12813 184.46458 92.84688 184.46458Q93.58125 184.46458 94.06563 183.76146Q94.56563 183.05833 94.56563 180.94896Q94.56563 178.82396 94.06563 178.13646Q93.58125 177.43333 92.83125 177.43333Q92.1125 177.43333 91.675 178.04271Q91.12813 178.82396 91.12813 180.94896ZM97.1125 177.71458L97.1125 176.69896L102.675 176.69896L102.675 177.52708Q101.8625 178.40208 101.05 179.85521Q100.25313 181.29271 99.81563 182.82396Q99.4875 183.90208 99.40938 185.18333L98.31563 185.18333Q98.33125 184.16771 98.70625 182.73021Q99.09688 181.29271 99.8 179.96458Q100.51875 178.63646 101.33125 177.71458L97.1125 177.71458Z" fill-rule="nonzero"/><path fill="#000000" d="M51.1125 118.08125L51.1125 117.06563L56.675 117.06563L56.675 117.89375Q55.8625 118.76875 55.05 120.22188Q54.253124 121.65938 53.815624 123.19063Q53.4875 124.26875 53.409374 125.55L52.315624 125.55Q52.33125 124.53438 52.70625 123.09688Q53.096874 121.65938 53.8 120.33125Q54.51875 119.00313 55.33125 118.08125L51.1125 118.08125ZM58.64375 125.55L58.64375 124.34688L59.846874 124.34688L59.846874 125.55L58.64375 125.55ZM61.05 123.3L62.159374 123.20625Q62.284374 124.01875 62.721874 124.425Q63.175 124.83125 63.815624 124.83125Q64.56563 124.83125 65.09688 124.25313Q65.62813 123.675 65.62813 122.7375Q65.62813 121.83125 65.1125 121.31563Q64.6125 120.78438 63.784374 120.78438Q63.284374 120.78438 62.8625 121.01875Q62.45625 121.25313 62.221874 121.6125L61.2375 121.4875L62.065624 117.08125L66.34688 117.08125L66.34688 118.08125L62.909374 118.08125L62.45625 120.39375Q63.221874 119.84688 64.06563 119.84688Q65.19063 119.84688 65.95625 120.62813Q66.7375 121.40938 66.7375 122.64375Q66.7375 123.8 66.06563 124.65938Q65.2375 125.69063 63.815624 125.69063Q62.64375 125.69063 61.89375 125.03438Q61.159374 124.37813 61.05 123.3ZM68.05 121.31563Q68.05 119.78438 68.3625 118.8625Q68.675 117.925 69.28438 117.425Q69.90938 116.925 70.84688 116.925Q71.53438 116.925 72.05 117.20625Q72.58125 117.4875 72.925 118.01875Q73.26875 118.53438 73.45625 119.28438Q73.64375 120.03438 73.64375 121.31563Q73.64375 122.83125 73.33125 123.75313Q73.03438 124.675 72.40938 125.19063Q71.8 125.69063 70.84688 125.69063Q69.6125 125.69063 68.89375 124.8Q68.05 123.7375 68.05 121.31563ZM69.12813 121.31563Q69.12813 123.425 69.62813 124.12813Q70.12813 124.83125 70.84688 124.83125Q71.58125 124.83125 72.06563 124.12813Q72.56563 123.425 72.56563 121.31563Q72.56563 119.19063 72.06563 118.50313Q71.58125 117.8 70.83125 117.8Q70.1125 117.8 69.675 118.40938Q69.12813 119.19063 69.12813 121.31563ZM75.50313 125.55L75.50313 116.95625L81.70625 116.95625L81.70625 117.97188L76.64375 117.97188L76.64375 120.59688L81.39375 120.59688L81.39375 121.6125L76.64375 121.6125L76.64375 124.53438L81.90938 124.53438L81.90938 125.55L75.50313 125.55ZM85.55 124.15938L85.55 121.8L83.22188 121.8L83.22188 120.81563L85.55 120.81563L85.55 118.4875L86.55 118.4875L86.55 120.81563L88.89375 120.81563L88.89375 121.8L86.55 121.8L86.55 124.15938L85.55 124.15938ZM90.05 121.31563Q90.05 119.78438 90.3625 118.8625Q90.675 117.925 91.28438 117.425Q91.90938 116.925 92.84688 116.925Q93.53438 116.925 94.05 117.20625Q94.58125 117.4875 94.925 118.01875Q95.26875 118.53438 95.45625 119.28438Q95.64375 120.03438 95.64375 121.31563Q95.64375 122.83125 95.33125 123.75313Q95.03438 124.675 94.40938 125.19063Q93.8 125.69063 92.84688 125.69063Q91.6125 125.69063 90.89375 124.8Q90.05 123.7375 90.05 121.31563ZM91.12813 121.31563Q91.12813 123.425 91.62813 124.12813Q92.12813 124.83125 92.84688 124.83125Q93.58125 124.83125 94.06563 124.12813Q94.56563 123.425 94.56563 121.31563Q94.56563 119.19063 94.06563 118.50313Q93.58125 117.8 92.83125 117.8Q92.1125 117.8 91.675 118.40938Q91.12813 119.19063 91.12813 121.31563ZM97.1125 118.08125L97.1125 117.06563L102.675 117.06563L102.675 117.89375Q101.8625 118.76875 101.05 120.22188Q100.25313 121.65938 99.81563 123.19063Q99.4875 124.26875 99.40938 125.55L98.31563 125.55Q98.33125 124.53438 98.70625 123.09688Q99.09688 121.65938 99.8 120.33125Q100.51875 119.00313 101.33125 118.08125L97.1125 118.08125Z" fill-rule="nonzero"/><path fill="#000000" d="M55.01875 65.916664L53.971874 65.916664L53.971874 59.197914Q53.58125 59.55729 52.95625 59.93229Q52.346874 60.291664 51.8625 60.46354L51.8625 59.447914Q52.7375 59.02604 53.39375 58.447914Q54.065624 57.854164 54.346874 57.291664L55.01875 57.291664L55.01875 65.916664ZM58.64375 65.916664L58.64375 64.71354L59.846874 64.71354L59.846874 65.916664L58.64375 65.916664ZM61.05 61.68229Q61.05 60.15104 61.3625 59.229164Q61.675 58.291664 62.284374 57.791664Q62.909374 57.291664 63.846874 57.291664Q64.53438 57.291664 65.05 57.572914Q65.58125 57.854164 65.925 58.385414Q66.26875 58.90104 66.45625 59.65104Q66.64375 60.40104 66.64375 61.68229Q66.64375 63.197914 66.33125 64.11979Q66.03438 65.041664 65.40938 65.55729Q64.8 66.05729 63.846874 66.05729Q62.6125 66.05729 61.89375 65.166664Q61.05 64.104164 61.05 61.68229ZM62.128124 61.68229Q62.128124 63.791664 62.628124 64.49479Q63.128124 65.197914 63.846874 65.197914Q64.58125 65.197914 65.06563 64.49479Q65.56563 63.791664 65.56563 61.68229Q65.56563 59.55729 65.06563 58.86979Q64.58125 58.166664 63.83125 58.166664Q63.1125 58.166664 62.675 58.77604Q62.128124 59.55729 62.128124 61.68229ZM68.05 61.68229Q68.05 60.15104 68.3625 59.229164Q68.675 58.291664 69.28438 57.791664Q69.90938 57.291664 70.84688 57.291664Q71.53438 57.291664 72.05 57.572914Q72.58125 57.854164 72.925 58.385414Q73.26875 58.90104 73.45625 59.65104Q73.64375 60.40104 73.64375 61.68229Q73.64375 63.197914 73.33125 64.11979Q73.03438 65.041664 72.40938 65.55729Q71.8 66.05729 70.84688 66.05729Q69.6125 66.05729 68.89375 65.166664Q68.05 64.104164 68.05 61.68229ZM69.12813 61.68229Q69.12813 63.791664 69.62813 64.49479Q70.12813 65.197914 70.84688 65.197914Q71.58125 65.197914 72.06563 64.49479Q72.56563 63.791664 72.56563 61.68229Q72.56563 59.55729 72.06563 58.86979Q71.58125 58.166664 70.83125 58.166664Q70.1125 58.166664 69.675 58.77604Q69.12813 59.55729 69.12813 61.68229ZM75.50313 65.916664L75.50313 57.322914L81.70625 57.322914L81.70625 58.33854L76.64375 58.33854L76.64375 60.96354L81.39375 60.96354L81.39375 61.979164L76.64375 61.979164L76.64375 64.90104L81.90938 64.90104L81.90938 65.916664L75.50313 65.916664ZM85.55 64.52604L85.55 62.166664L83.22188 62.166664L83.22188 61.18229L85.55 61.18229L85.55 58.854164L86.55 58.854164L86.55 61.18229L88.89375 61.18229L88.89375 62.166664L86.55 62.166664L86.55 64.52604L85.55 64.52604ZM90.05 61.68229Q90.05 60.15104 90.3625 59.229164Q90.675 58.291664 91.28438 57.791664Q91.90938 57.291664 92.84688 57.291664Q93.53438 57.291664 94.05 57.572914Q94.58125 57.854164 94.925 58.385414Q95.26875 58.90104 95.45625 59.65104Q95.64375 60.40104 95.64375 61.68229Q95.64375 63.197914 95.33125 64.11979Q95.03438 65.041664 94.40938 65.55729Q93.8 66.05729 92.84688 66.05729Q91.6125 66.05729 90.89375 65.166664Q90.05 64.104164 90.05 61.68229ZM91.12813 61.68229Q91.12813 63.791664 91.62813 64.49479Q92.12813 65.197914 92.84688 65.197914Q93.58125 65.197914 94.06563 64.49479Q94.56563 63.791664 94.56563 61.68229Q94.56563 59.55729 94.06563 58.86979Q93.58125 58.166664 92.83125 58.166664Q92.1125 58.166664 91.675 58.77604Q91.12813 59.55729 91.12813 61.68229ZM98.675 61.260414Q98.01875 61.010414 97.69063 60.572914Q97.37813 60.11979 97.37813 59.510414Q97.37813 58.572914 98.05 57.93229Q98.7375 57.291664 99.84688 57.291664Q100.97188 57.291664 101.65938 57.947914Q102.34688 58.604164 102.34688 59.541664Q102.34688 60.135414 102.03438 60.572914Q101.72188 61.010414 101.08125 61.260414Q101.87813 61.510414 102.28438 62.08854Q102.69063 62.666664 102.69063 63.46354Q102.69063 64.55729 101.90938 65.30729Q101.14375 66.05729 99.8625 66.05729Q98.59688 66.05729 97.81563 65.30729Q97.03438 64.55729 97.03438 63.43229Q97.03438 62.58854 97.45625 62.02604Q97.89375 61.46354 98.675 61.260414ZM98.45625 59.46354Q98.45625 60.072914 98.84688 60.46354Q99.25313 60.854164 99.87813 60.854164Q100.4875 60.854164 100.87813 60.479164Q101.26875 60.08854 101.26875 59.52604Q101.26875 58.947914 100.8625 58.55729Q100.45625 58.15104 99.8625 58.15104Q99.25313 58.15104 98.84688 58.541664Q98.45625 58.93229 98.45625 59.46354ZM98.12813 63.43229Q98.12813 63.885414 98.33125 64.30729Q98.55 64.729164 98.97188 64.96354Q99.39375 65.197914 99.87813 65.197914Q100.62813 65.197914 101.1125 64.71354Q101.6125 64.229164 101.6125 63.479164Q101.6125 62.71354 101.1125 62.21354Q100.6125 61.71354 99.84688 61.71354Q99.09688 61.71354 98.6125 62.21354Q98.12813 62.697914 98.12813 63.43229Z" fill-rule="nonzero"/><path fill="#000000" d="M106.77849 313.21564Q106.77849 311.6844 107.09099 310.7625Q107.40349 309.825 108.01286 309.325Q108.63786 308.825 109.57536 308.825Q110.26286 308.825 110.77849 309.10626Q111.30974 309.3875 111.65349 309.91876Q111.99724 310.4344 112.18474 311.1844Q112.37224 311.9344 112.37224 313.21564Q112.37224 314.73126 112.05974 315.65314Q111.76286 316.575 111.13786 317.09064Q110.52849 317.59064 109.57536 317.59064Q108.34099 317.59064 107.62224 316.7Q106.77849 315.6375 106.77849 313.21564ZM107.85661 313.21564Q107.85661 315.325 108.35661 316.02814Q108.85661 316.73126 109.57536 316.73126Q110.30974 316.73126 110.79411 316.02814Q111.29411 315.325 111.29411 313.21564Q111.29411 311.09064 110.79411 310.40314Q110.30974 309.7 109.55974 309.7Q108.84099 309.7 108.40349 310.3094Q107.85661 311.09064 107.85661 313.21564Z" fill-rule="nonzero"/><path fill="#000000" d="M218.51918 316.4344L218.51918 317.45L212.83168 317.45Q212.83168 317.075 212.95668 316.71564Q213.17543 316.1375 213.64418 315.575Q214.12856 315.0125 215.0348 314.27814Q216.44106 313.1219 216.92543 312.45Q217.42543 311.77814 217.42543 311.1844Q217.42543 310.5594 216.9723 310.1375Q216.51918 309.7 215.80043 309.7Q215.0348 309.7 214.58168 310.15314Q214.12856 310.60626 214.11293 311.41876L213.0348 311.3094Q213.14418 310.09064 213.86293 309.46564Q214.5973 308.825 215.83168 308.825Q217.06606 308.825 217.7848 309.5125Q218.50356 310.2 218.50356 311.21564Q218.50356 311.73126 218.2848 312.23126Q218.08168 312.71564 217.58168 313.27814Q217.0973 313.825 215.9723 314.77814Q215.01918 315.575 214.73793 315.8719Q214.4723 316.15314 214.30043 316.4344L218.51918 316.4344ZM219.9723 315.2L221.08168 315.10626Q221.20668 315.91876 221.64418 316.325Q222.0973 316.73126 222.73793 316.73126Q223.48793 316.73126 224.01918 316.15314Q224.55043 315.575 224.55043 314.6375Q224.55043 313.73126 224.0348 313.21564Q223.5348 312.6844 222.70668 312.6844Q222.20668 312.6844 221.7848 312.91876Q221.37856 313.15314 221.14418 313.5125L220.1598 313.3875L220.98793 308.98126L225.26918 308.98126L225.26918 309.98126L221.83168 309.98126L221.37856 312.29376Q222.14418 311.7469 222.98793 311.7469Q224.11293 311.7469 224.87856 312.52814Q225.6598 313.3094 225.6598 314.54376Q225.6598 315.7 224.98793 316.5594Q224.1598 317.59064 222.73793 317.59064Q221.56606 317.59064 220.81606 316.9344Q220.08168 316.27814 219.9723 315.2ZM226.9723 313.21564Q226.9723 311.6844 227.2848 310.7625Q227.5973 309.825 228.20668 309.325Q228.83168 308.825 229.76918 308.825Q230.45668 308.825 230.9723 309.10626Q231.50356 309.3875 231.8473 309.91876Q232.19106 310.4344 232.37856 311.1844Q232.56606 311.9344 232.56606 313.21564Q232.56606 314.73126 232.25356 315.65314Q231.95668 316.575 231.33168 317.09064Q230.7223 317.59064 229.76918 317.59064Q228.5348 317.59064 227.81606 316.7Q226.9723 315.6375 226.9723 313.21564ZM228.05043 313.21564Q228.05043 315.325 228.55043 316.02814Q229.05043 316.73126 229.76918 316.73126Q230.50356 316.73126 230.98793 316.02814Q231.48793 315.325 231.48793 313.21564Q231.48793 311.09064 230.98793 310.40314Q230.50356 309.7 229.75356 309.7Q229.0348 309.7 228.5973 310.3094Q228.05043 311.09064 228.05043 313.21564ZM233.9723 313.21564Q233.9723 311.6844 234.2848 310.7625Q234.5973 309.825 235.20668 309.325Q235.83168 308.825 236.76918 308.825Q237.45668 308.825 237.9723 309.10626Q238.50356 309.3875 238.8473 309.91876Q239.19106 310.4344 239.37856 311.1844Q239.56606 311.9344 239.56606 313.21564Q239.56606 314.73126 239.25356 315.65314Q238.95668 316.575 238.33168 317.09064Q237.7223 317.59064 236.76918 317.59064Q235.5348 317.59064 234.81606 316.7Q233.9723 315.6375 233.9723 313.21564ZM235.05043 313.21564Q235.05043 315.325 235.55043 316.02814Q236.05043 316.73126 236.76918 316.73126Q237.50356 316.73126 237.98793 316.02814Q238.48793 315.325 238.48793 313.21564Q238.48793 311.09064 237.98793 310.40314Q237.50356 309.7 236.75356 309.7Q236.0348 309.7 235.5973 310.3094Q235.05043 311.09064 235.05043 313.21564Z" fill-rule="nonzero"/><path fill="#000000" d="M329.66614 315.2L330.7755 315.10626Q330.9005 315.91876 331.338 316.325Q331.79114 316.73126 332.43176 316.73126Q333.18176 316.73126 333.713 316.15314Q334.24426 315.575 334.24426 314.6375Q334.24426 313.73126 333.72864 313.21564Q333.22864 312.6844 332.4005 312.6844Q331.9005 312.6844 331.47864 312.91876Q331.0724 313.15314 330.838 313.5125L329.85364 313.3875L330.68176 308.98126L334.963 308.98126L334.963 309.98126L331.5255 309.98126L331.0724 312.29376Q331.838 311.7469 332.68176 311.7469Q333.80676 311.7469 334.5724 312.52814Q335.35364 313.3094 335.35364 314.54376Q335.35364 315.7 334.68176 316.5594Q333.85364 317.59064 332.43176 317.59064Q331.2599 317.59064 330.5099 316.9344Q329.7755 316.27814 329.66614 315.2ZM336.66614 313.21564Q336.66614 311.6844 336.97864 310.7625Q337.29114 309.825 337.9005 309.325Q338.5255 308.825 339.463 308.825Q340.1505 308.825 340.66614 309.10626Q341.1974 309.3875 341.54114 309.91876Q341.8849 310.4344 342.0724 311.1844Q342.2599 311.9344 342.2599 313.21564Q342.2599 314.73126 341.9474 315.65314Q341.6505 316.575 341.0255 317.09064Q340.41614 317.59064 339.463 317.59064Q338.22864 317.59064 337.5099 316.7Q336.66614 315.6375 336.66614 313.21564ZM337.74426 313.21564Q337.74426 315.325 338.24426 316.02814Q338.74426 316.73126 339.463 316.73126Q340.1974 316.73126 340.68176 316.02814Q341.18176 315.325 341.18176 313.21564Q341.18176 311.09064 340.68176 310.40314Q340.1974 309.7 339.4474 309.7Q338.72864 309.7 338.29114 310.3094Q337.74426 311.09064 337.74426 313.21564ZM343.66614 313.21564Q343.66614 311.6844 343.97864 310.7625Q344.29114 309.825 344.9005 309.325Q345.5255 308.825 346.463 308.825Q347.1505 308.825 347.66614 309.10626Q348.1974 309.3875 348.54114 309.91876Q348.8849 310.4344 349.0724 311.1844Q349.2599 311.9344 349.2599 313.21564Q349.2599 314.73126 348.9474 315.65314Q348.6505 316.575 348.0255 317.09064Q347.41614 317.59064 346.463 317.59064Q345.22864 317.59064 344.5099 316.7Q343.66614 315.6375 343.66614 313.21564ZM344.74426 313.21564Q344.74426 315.325 345.24426 316.02814Q345.74426 316.73126 346.463 316.73126Q347.1974 316.73126 347.68176 316.02814Q348.18176 315.325 348.18176 313.21564Q348.18176 311.09064 347.68176 310.40314Q347.1974 309.7 346.4474 309.7Q345.72864 309.7 345.29114 310.3094Q344.74426 311.09064 344.74426 313.21564ZM350.66614 313.21564Q350.66614 311.6844 350.97864 310.7625Q351.29114 309.825 351.9005 309.325Q352.5255 308.825 353.463 308.825Q354.1505 308.825 354.66614 309.10626Q355.1974 309.3875 355.54114 309.91876Q355.8849 310.4344 356.0724 311.1844Q356.2599 311.9344 356.2599 313.21564Q356.2599 314.73126 355.9474 315.65314Q355.6505 316.575 355.0255 317.09064Q354.41614 317.59064 353.463 317.59064Q352.22864 317.59064 351.5099 316.7Q350.66614 315.6375 350.66614 313.21564ZM351.74426 313.21564Q351.74426 315.325 352.24426 316.02814Q352.74426 316.73126 353.463 316.73126Q354.1974 316.73126 354.68176 316.02814Q355.18176 315.325 355.18176 313.21564Q355.18176 311.09064 354.68176 310.40314Q354.1974 309.7 353.4474 309.7Q352.72864 309.7 352.29114 310.3094Q351.74426 311.09064 351.74426 313.21564Z" fill-rule="nonzero"/><path fill="#000000" d="M446.42245 309.98126L446.42245 308.96564L451.98495 308.96564L451.98495 309.79376Q451.17245 310.66876 450.35995 312.1219Q449.56308 313.5594 449.12558 315.09064Q448.79745 316.16876 448.71933 317.45L447.62558 317.45Q447.6412 316.4344 448.0162 314.9969Q448.40683 313.5594 449.10995 312.23126Q449.8287 310.90314 450.6412 309.98126L446.42245 309.98126ZM453.35995 315.2L454.46933 315.10626Q454.59433 315.91876 455.03183 316.325Q455.48495 316.73126 456.12558 316.73126Q456.87558 316.73126 457.40683 316.15314Q457.93808 315.575 457.93808 314.6375Q457.93808 313.73126 457.42245 313.21564Q456.92245 312.6844 456.09433 312.6844Q455.59433 312.6844 455.17245 312.91876Q454.7662 313.15314 454.53183 313.5125L453.54745 313.3875L454.37558 308.98126L458.65683 308.98126L458.65683 309.98126L455.21933 309.98126L454.7662 312.29376Q455.53183 311.7469 456.37558 311.7469Q457.50058 311.7469 458.2662 312.52814Q459.04745 313.3094 459.04745 314.54376Q459.04745 315.7 458.37558 316.5594Q457.54745 317.59064 456.12558 317.59064Q454.9537 317.59064 454.2037 316.9344Q453.46933 316.27814 453.35995 315.2ZM460.35995 313.21564Q460.35995 311.6844 460.67245 310.7625Q460.98495 309.825 461.59433 309.325Q462.21933 308.825 463.15683 308.825Q463.84433 308.825 464.35995 309.10626Q464.8912 309.3875 465.23495 309.91876Q465.5787 310.4344 465.7662 311.1844Q465.9537 311.9344 465.9537 313.21564Q465.9537 314.73126 465.6412 315.65314Q465.34433 316.575 464.71933 317.09064Q464.10995 317.59064 463.15683 317.59064Q461.92245 317.59064 461.2037 316.7Q460.35995 315.6375 460.35995 313.21564ZM461.43808 313.21564Q461.43808 315.325 461.93808 316.02814Q462.43808 316.73126 463.15683 316.73126Q463.8912 316.73126 464.37558 316.02814Q464.87558 315.325 464.87558 313.21564Q464.87558 311.09064 464.37558 310.40314Q463.8912 309.7 463.1412 309.7Q462.42245 309.7 461.98495 310.3094Q461.43808 311.09064 461.43808 313.21564ZM467.35995 313.21564Q467.35995 311.6844 467.67245 310.7625Q467.98495 309.825 468.59433 309.325Q469.21933 308.825 470.15683 308.825Q470.84433 308.825 471.35995 309.10626Q471.8912 309.3875 472.23495 309.91876Q472.5787 310.4344 472.7662 311.1844Q472.9537 311.9344 472.9537 313.21564Q472.9537 314.73126 472.6412 315.65314Q472.34433 316.575 471.71933 317.09064Q471.10995 317.59064 470.15683 317.59064Q468.92245 317.59064 468.2037 316.7Q467.35995 315.6375 467.35995 313.21564ZM468.43808 313.21564Q468.43808 315.325 468.93808 316.02814Q469.43808 316.73126 470.15683 316.73126Q470.8912 316.73126 471.37558 316.02814Q471.87558 315.325 471.87558 313.21564Q471.87558 311.09064 471.37558 310.40314Q470.8912 309.7 470.1412 309.7Q469.42245 309.7 468.98495 310.3094Q468.43808 311.09064 468.43808 313.21564Z" fill-rule="nonzero"/><path fill="#000000" d="M563.5225 317.45L562.47565 317.45L562.47565 310.73126Q562.085 311.09064 561.46 311.46564Q560.85065 311.825 560.3663 311.9969L560.3663 310.98126Q561.2413 310.5594 561.8975 309.98126Q562.5694 309.3875 562.85065 308.825L563.5225 308.825L563.5225 317.45ZM566.5538 313.21564Q566.5538 311.6844 566.8663 310.7625Q567.1788 309.825 567.78815 309.325Q568.41315 308.825 569.35065 308.825Q570.03815 308.825 570.5538 309.10626Q571.085 309.3875 571.4288 309.91876Q571.7725 310.4344 571.96 311.1844Q572.1475 311.9344 572.1475 313.21564Q572.1475 314.73126 571.835 315.65314Q571.53815 316.575 570.91315 317.09064Q570.3038 317.59064 569.35065 317.59064Q568.1163 317.59064 567.3975 316.7Q566.5538 315.6375 566.5538 313.21564ZM567.6319 313.21564Q567.6319 315.325 568.1319 316.02814Q568.6319 316.73126 569.35065 316.73126Q570.085 316.73126 570.5694 316.02814Q571.0694 315.325 571.0694 313.21564Q571.0694 311.09064 570.5694 310.40314Q570.085 309.7 569.335 309.7Q568.6163 309.7 568.1788 310.3094Q567.6319 311.09064 567.6319 313.21564ZM573.5538 313.21564Q573.5538 311.6844 573.8663 310.7625Q574.1788 309.825 574.78815 309.325Q575.41315 308.825 576.35065 308.825Q577.03815 308.825 577.5538 309.10626Q578.085 309.3875 578.4288 309.91876Q578.7725 310.4344 578.96 311.1844Q579.1475 311.9344 579.1475 313.21564Q579.1475 314.73126 578.835 315.65314Q578.53815 316.575 577.91315 317.09064Q577.3038 317.59064 576.35065 317.59064Q575.1163 317.59064 574.3975 316.7Q573.5538 315.6375 573.5538 313.21564ZM574.6319 313.21564Q574.6319 315.325 575.1319 316.02814Q575.6319 316.73126 576.35065 316.73126Q577.085 316.73126 577.5694 316.02814Q578.0694 315.325 578.0694 313.21564Q578.0694 311.09064 577.5694 310.40314Q577.085 309.7 576.335 309.7Q575.6163 309.7 575.1788 310.3094Q574.6319 311.09064 574.6319 313.21564ZM580.5538 313.21564Q580.5538 311.6844 580.8663 310.7625Q581.1788 309.825 581.78815 309.325Q582.41315 308.825 583.35065 308.825Q584.03815 308.825 584.5538 309.10626Q585.085 309.3875 585.4288 309.91876Q585.7725 310.4344 585.96 311.1844Q586.1475 311.9344 586.1475 313.21564Q586.1475 314.73126 585.835 315.65314Q585.53815 316.575 584.91315 317.09064Q584.3038 317.59064 583.35065 317.59064Q582.1163 317.59064 581.3975 316.7Q580.5538 315.6375 580.5538 313.21564ZM581.6319 313.21564Q581.6319 315.325 582.1319 316.02814Q582.6319 316.73126 583.35065 316.73126Q584.085 316.73126 584.5694 316.02814Q585.0694 315.325 585.0694 313.21564Q585.0694 311.09064 584.5694 310.40314Q584.085 309.7 583.335 309.7Q582.6163 309.7 582.1788 310.3094Q581.6319 311.09064 581.6319 313.21564ZM587.5538 313.21564Q587.5538 311.6844 587.8663 310.7625Q588.1788 309.825 588.78815 309.325Q589.41315 308.825 590.35065 308.825Q591.03815 308.825 591.5538 309.10626Q592.085 309.3875 592.4288 309.91876Q592.7725 310.4344 592.96 311.1844Q593.1475 311.9344 593.1475 313.21564Q593.1475 314.73126 592.835 315.65314Q592.53815 316.575 591.91315 317.09064Q591.3038 317.59064 590.35065 317.59064Q589.1163 317.59064 588.3975 316.7Q587.5538 315.6375 587.5538 313.21564ZM588.6319 313.21564Q588.6319 315.325 589.1319 316.02814Q589.6319 316.73126 590.35065 316.73126Q591.085 316.73126 591.5694 316.02814Q592.0694 315.325 592.0694 313.21564Q592.0694 311.09064 591.5694 310.40314Q591.085 309.7 590.335 309.7Q589.6163 309.7 589.1788 310.3094Q588.6319 311.09064 588.6319 313.21564Z" fill-rule="nonzero"/><path fill="#757575" d="M20.128124 37.55L20.128124 23.2375L30.4875 23.2375L30.4875 24.925L22.034374 24.925L22.034374 29.3L29.940624 29.3L29.940624 30.9875L22.034374 30.9875L22.034374 35.8625L30.815624 35.8625L30.815624 37.55L20.128124 37.55ZM31.690624 37.55L35.4875 32.159374L31.9875 27.175L34.175 27.175L35.76875 29.6125Q36.221874 30.3 36.4875 30.76875Q36.925 30.128124 37.284374 29.628124L39.034374 27.175L41.128124 27.175L37.55 32.065624L41.409374 37.55L39.253124 37.55L37.1125 34.33125L36.55 33.45625L33.83125 37.55L31.690624 37.55ZM49.971874 34.20625L51.784374 34.440624Q51.3625 36.01875 50.190624 36.909374Q49.034374 37.784374 47.221874 37.784374Q44.95625 37.784374 43.6125 36.39375Q42.284374 34.9875 42.284374 32.45625Q42.284374 29.83125 43.628124 28.39375Q44.971874 26.940624 47.128124 26.940624Q49.20625 26.940624 50.51875 28.3625Q51.846874 29.76875 51.846874 32.346874Q51.846874 32.503124 51.83125 32.815624L44.096874 32.815624Q44.190624 34.51875 45.065624 35.425Q45.940624 36.33125 47.2375 36.33125Q48.20625 36.33125 48.878124 35.83125Q49.565624 35.315624 49.971874 34.20625ZM44.190624 31.3625L49.9875 31.3625Q49.878124 30.065624 49.33125 29.409374Q48.4875 28.39375 47.14375 28.39375Q45.940624 28.39375 45.1125 29.20625Q44.284374 30.003124 44.190624 31.3625ZM60.64375 33.753124L62.3625 33.971874Q62.08125 35.76875 60.909374 36.784374Q59.753124 37.784374 58.05 37.784374Q55.925 37.784374 54.628124 36.39375Q53.33125 35.003124 53.33125 32.409374Q53.33125 30.721874 53.878124 29.471874Q54.440624 28.20625 55.58125 27.58125Q56.721874 26.940624 58.065624 26.940624Q59.753124 26.940624 60.815624 27.8Q61.89375 28.659374 62.20625 30.221874L60.4875 30.4875Q60.253124 29.440624 59.628124 28.925Q59.003124 28.39375 58.128124 28.39375Q56.8 28.39375 55.971874 29.346874Q55.14375 30.3 55.14375 32.346874Q55.14375 34.440624 55.940624 35.39375Q56.7375 36.33125 58.034374 36.33125Q59.065624 36.33125 59.753124 35.70625Q60.45625 35.065624 60.64375 33.753124ZM70.65938 37.55L70.65938 36.01875Q69.45625 37.784374 67.37813 37.784374Q66.45625 37.784374 65.65938 37.440624Q64.8625 37.08125 64.47188 36.55Q64.09688 36.01875 63.940624 35.2375Q63.83125 34.721874 63.83125 33.596874L63.83125 27.175L65.58125 27.175L65.58125 32.925Q65.58125 34.3 65.69063 34.784374Q65.8625 35.471874 66.39375 35.878124Q66.94063 36.26875 67.72188 36.26875Q68.51875 36.26875 69.20625 35.8625Q69.90938 35.45625 70.19063 34.76875Q70.4875 34.065624 70.4875 32.7375L70.4875 27.175L72.2375 27.175L72.2375 37.55L70.65938 37.55ZM78.70625 35.971874L78.95625 37.534374Q78.22188 37.690624 77.62813 37.690624Q76.675 37.690624 76.14375 37.39375Q75.62813 37.08125 75.40938 36.596874Q75.19063 36.096874 75.19063 34.51875L75.19063 28.55L73.90938 28.55L73.90938 27.175L75.19063 27.175L75.19063 24.6125L76.94063 23.55L76.94063 27.175L78.70625 27.175L78.70625 28.55L76.94063 28.55L76.94063 34.6125Q76.94063 35.3625 77.03438 35.58125Q77.12813 35.784374 77.33125 35.925Q77.55 36.05 77.94063 36.05Q78.22188 36.05 78.70625 35.971874ZM80.87813 25.253124L80.87813 23.2375L82.64375 23.2375L82.64375 25.253124L80.87813 25.253124ZM80.87813 37.55L80.87813 27.175L82.64375 27.175L82.64375 37.55L80.87813 37.55ZM84.22188 32.3625Q84.22188 29.4875 85.81563 28.096874Q87.15938 26.940624 89.08125 26.940624Q91.22188 26.940624 92.56563 28.346874Q93.925 29.753124 93.925 32.221874Q93.925 34.221874 93.33125 35.378124Q92.7375 36.51875 91.58125 37.159374Q90.44063 37.784374 89.08125 37.784374Q86.89375 37.784374 85.55 36.39375Q84.22188 34.9875 84.22188 32.3625ZM86.01875 32.3625Q86.01875 34.3625 86.87813 35.346874Q87.75313 36.33125 89.08125 36.33125Q90.39375 36.33125 91.25313 35.346874Q92.12813 34.346874 92.12813 32.3Q92.12813 30.378124 91.25313 29.39375Q90.37813 28.39375 89.08125 28.39375Q87.75313 28.39375 86.87813 29.39375Q86.01875 30.378124 86.01875 32.3625ZM95.8625 37.55L95.8625 27.175L97.45625 27.175L97.45625 28.659374Q98.59688 26.940624 100.75313 26.940624Q101.69063 26.940624 102.47188 27.284374Q103.26875 27.6125 103.65938 28.159374Q104.05 28.70625 104.20625 29.45625Q104.3 29.95625 104.3 31.175L104.3 37.55L102.53438 37.55L102.53438 31.2375Q102.53438 30.159374 102.33125 29.628124Q102.12813 29.096874 101.59688 28.784374Q101.08125 28.471874 100.37813 28.471874Q99.25313 28.471874 98.44063 29.190624Q97.62813 29.89375 97.62813 31.878124L97.62813 37.55L95.8625 37.55ZM116.70625 35.971874L116.95625 37.534374Q116.22188 37.690624 115.62813 37.690624Q114.675 37.690624 114.14375 37.39375Q113.62813 37.08125 113.40938 36.596874Q113.19063 36.096874 113.19063 34.51875L113.19063 28.55L111.90938 28.55L111.90938 27.175L113.19063 27.175L113.19063 24.6125L114.94063 23.55L114.94063 27.175L116.70625 27.175L116.70625 28.55L114.94063 28.55L114.94063 34.6125Q114.94063 35.3625 115.03438 35.58125Q115.12813 35.784374 115.33125 35.925Q115.55 36.05 115.94063 36.05Q116.22188 36.05 116.70625 35.971874ZM118.87813 25.253124L118.87813 23.2375L120.64375 23.2375L120.64375 25.253124L118.87813 25.253124ZM118.87813 37.55L118.87813 27.175L120.64375 27.175L120.64375 37.55L118.87813 37.55ZM122.8625 37.55L122.8625 27.175L124.44063 27.175L124.44063 28.628124Q124.925 27.878124 125.7375 27.409374Q126.55 26.940624 127.58125 26.940624Q128.7375 26.940624 129.47188 27.425Q130.20625 27.89375 130.51875 28.753124Q131.75313 26.940624 133.72188 26.940624Q135.26875 26.940624 136.09688 27.8Q136.925 28.659374 136.925 30.425L136.925 37.55L135.175 37.55L135.175 31.01875Q135.175 29.95625 135.00313 29.503124Q134.83125 29.034374 134.37813 28.753124Q133.94063 28.471874 133.33125 28.471874Q132.2375 28.471874 131.50313 29.20625Q130.78438 29.925 130.78438 31.51875L130.78438 37.55L129.03438 37.55L129.03438 30.815624Q129.03438 29.64375 128.59688 29.065624Q128.175 28.471874 127.19063 28.471874Q126.45625 28.471874 125.81563 28.8625Q125.19063 29.253124 124.90938 30.003124Q124.62813 30.753124 124.62813 32.175L124.62813 37.55L122.8625 37.55ZM146.97188 34.20625L148.78438 34.440624Q148.3625 36.01875 147.19063 36.909374Q146.03438 37.784374 144.22188 37.784374Q141.95625 37.784374 140.6125 36.39375Q139.28438 34.9875 139.28438 32.45625Q139.28438 29.83125 140.62813 28.39375Q141.97188 26.940624 144.12813 26.940624Q146.20625 26.940624 147.51875 28.3625Q148.84688 29.76875 148.84688 32.346874Q148.84688 32.503124 148.83125 32.815624L141.09688 32.815624Q141.19063 34.51875 142.06563 35.425Q142.94063 36.33125 144.2375 36.33125Q145.20625 36.33125 145.87813 35.83125Q146.56563 35.315624 146.97188 34.20625ZM141.19063 31.3625L146.9875 31.3625Q146.87813 30.065624 146.33125 29.409374Q145.4875 28.39375 144.14375 28.39375Q142.94063 28.39375 142.1125 29.20625Q141.28438 30.003124 141.19063 31.3625ZM159.75313 37.55L155.8 27.175L157.65938 27.175L159.89375 33.39375Q160.25313 34.39375 160.55 35.471874Q160.78438 34.659374 161.20625 33.503124L163.50313 27.175L165.31563 27.175L161.39375 37.55L159.75313 37.55ZM166.15938 34.45625L167.90938 34.175Q168.05 35.221874 168.72188 35.784374Q169.39375 36.33125 170.59688 36.33125Q171.8 36.33125 172.37813 35.846874Q172.97188 35.346874 172.97188 34.690624Q172.97188 34.096874 172.45625 33.753124Q172.09688 33.51875 170.65938 33.159374Q168.72188 32.659374 167.97188 32.315624Q167.2375 31.95625 166.84688 31.33125Q166.45625 30.690624 166.45625 29.925Q166.45625 29.2375 166.76875 28.64375Q167.09688 28.05 167.64375 27.659374Q168.05 27.3625 168.75313 27.159374Q169.47188 26.940624 170.28438 26.940624Q171.50313 26.940624 172.425 27.3Q173.34688 27.64375 173.78438 28.253124Q174.22188 28.846874 174.39375 29.846874L172.675 30.08125Q172.55 29.284374 171.9875 28.846874Q171.425 28.39375 170.40938 28.39375Q169.19063 28.39375 168.675 28.8Q168.15938 29.190624 168.15938 29.721874Q168.15938 30.065624 168.37813 30.346874Q168.58125 30.628124 169.05 30.815624Q169.31563 30.909374 170.59688 31.253124Q172.47188 31.753124 173.20625 32.08125Q173.94063 32.39375 174.3625 33.003124Q174.78438 33.596874 174.78438 34.503124Q174.78438 35.378124 174.26875 36.159374Q173.75313 36.940624 172.78438 37.3625Q171.81563 37.784374 170.59688 37.784374Q168.58125 37.784374 167.51875 36.940624Q166.45625 36.096874 166.15938 34.45625ZM189.59688 37.55L189.59688 36.2375Q188.6125 37.784374 186.69063 37.784374Q185.45625 37.784374 184.40938 37.096874Q183.37813 36.409374 182.8 35.190624Q182.2375 33.971874 182.2375 32.378124Q182.2375 30.815624 182.75313 29.55Q183.26875 28.284374 184.3 27.6125Q185.34688 26.940624 186.6125 26.940624Q187.55 26.940624 188.28438 27.346874Q189.01875 27.7375 189.4875 28.3625L189.4875 23.2375L191.22188 23.2375L191.22188 37.55L189.59688 37.55ZM184.03438 32.378124Q184.03438 34.3625 184.87813 35.346874Q185.72188 36.33125 186.8625 36.33125Q188.01875 36.33125 188.81563 35.39375Q189.62813 34.45625 189.62813 32.51875Q189.62813 30.39375 188.8 29.39375Q187.9875 28.39375 186.78438 28.39375Q185.6125 28.39375 184.81563 29.3625Q184.03438 30.315624 184.03438 32.378124ZM193.87813 25.253124L193.87813 23.2375L195.64375 23.2375L195.64375 25.253124L193.87813 25.253124ZM193.87813 37.55L193.87813 27.175L195.64375 27.175L195.64375 37.55L193.87813 37.55ZM197.8625 37.55L197.8625 27.175L199.44063 27.175L199.44063 28.628124Q199.925 27.878124 200.7375 27.409374Q201.55 26.940624 202.58125 26.940624Q203.7375 26.940624 204.47188 27.425Q205.20625 27.89375 205.51875 28.753124Q206.75313 26.940624 208.72188 26.940624Q210.26875 26.940624 211.09688 27.8Q211.925 28.659374 211.925 30.425L211.925 37.55L210.175 37.55L210.175 31.01875Q210.175 29.95625 210.00313 29.503124Q209.83125 29.034374 209.37813 28.753124Q208.94063 28.471874 208.33125 28.471874Q207.2375 28.471874 206.50313 29.20625Q205.78438 29.925 205.78438 31.51875L205.78438 37.55L204.03438 37.55L204.03438 30.815624Q204.03438 29.64375 203.59688 29.065624Q203.175 28.471874 202.19063 28.471874Q201.45625 28.471874 200.81563 28.8625Q200.19063 29.253124 199.90938 30.003124Q199.62813 30.753124 199.62813 32.175L199.62813 37.55L197.8625 37.55ZM221.97188 34.20625L223.78438 34.440624Q223.3625 36.01875 222.19063 36.909374Q221.03438 37.784374 219.22188 37.784374Q216.95625 37.784374 215.6125 36.39375Q214.28438 34.9875 214.28438 32.45625Q214.28438 29.83125 215.62813 28.39375Q216.97188 26.940624 219.12813 26.940624Q221.20625 26.940624 222.51875 28.3625Q223.84688 29.76875 223.84688 32.346874Q223.84688 32.503124 223.83125 32.815624L216.09688 32.815624Q216.19063 34.51875 217.06563 35.425Q217.94063 36.33125 219.2375 36.33125Q220.20625 36.33125 220.87813 35.83125Q221.56563 35.315624 221.97188 34.20625ZM216.19063 31.3625L221.9875 31.3625Q221.87813 30.065624 221.33125 29.409374Q220.4875 28.39375 219.14375 28.39375Q217.94063 28.39375 217.1125 29.20625Q216.28438 30.003124 216.19063 31.3625ZM225.8625 37.55L225.8625 27.175L227.45625 27.175L227.45625 28.659374Q228.59688 26.940624 230.75313 26.940624Q231.69063 26.940624 232.47188 27.284374Q233.26875 27.6125 233.65938 28.159374Q234.05 28.70625 234.20625 29.45625Q234.3 29.95625 234.3 31.175L234.3 37.55L232.53438 37.55L232.53438 31.2375Q232.53438 30.159374 232.33125 29.628124Q232.12813 29.096874 231.59688 28.784374Q231.08125 28.471874 230.37813 28.471874Q229.25313 28.471874 228.44063 29.190624Q227.62813 29.89375 227.62813 31.878124L227.62813 37.55L225.8625 37.55ZM236.15938 34.45625L237.90938 34.175Q238.05 35.221874 238.72188 35.784374Q239.39375 36.33125 240.59688 36.33125Q241.8 36.33125 242.37813 35.846874Q242.97188 35.346874 242.97188 34.690624Q242.97188 34.096874 242.45625 33.753124Q242.09688 33.51875 240.65938 33.159374Q238.72188 32.659374 237.97188 32.315624Q237.2375 31.95625 236.84688 31.33125Q236.45625 30.690624 236.45625 29.925Q236.45625 29.2375 236.76875 28.64375Q237.09688 28.05 237.64375 27.659374Q238.05 27.3625 238.75313 27.159374Q239.47188 26.940624 240.28438 26.940624Q241.50313 26.940624 242.425 27.3Q243.34688 27.64375 243.78438 28.253124Q244.22188 28.846874 244.39375 29.846874L242.675 30.08125Q242.55 29.284374 241.9875 28.846874Q241.425 28.39375 240.40938 28.39375Q239.19063 28.39375 238.675 28.8Q238.15938 29.190624 238.15938 29.721874Q238.15938 30.065624 238.37813 30.346874Q238.58125 30.628124 239.05 30.815624Q239.31563 30.909374 240.59688 31.253124Q242.47188 31.753124 243.20625 32.08125Q243.94063 32.39375 244.3625 33.003124Q244.78438 33.596874 244.78438 34.503124Q244.78438 35.378124 244.26875 36.159374Q243.75313 36.940624 242.78438 37.3625Q241.81563 37.784374 240.59688 37.784374Q238.58125 37.784374 237.51875 36.940624Q236.45625 36.096874 236.15938 34.45625ZM246.87813 25.253124L246.87813 23.2375L248.64375 23.2375L248.64375 25.253124L246.87813 25.253124ZM246.87813 37.55L246.87813 27.175L248.64375 27.175L248.64375 37.55L246.87813 37.55ZM250.22188 32.3625Q250.22188 29.4875 251.81563 28.096874Q253.15938 26.940624 255.08125 26.940624Q257.22186 26.940624 258.5656 28.346874Q259.925 29.753124 259.925 32.221874Q259.925 34.221874 259.33124 35.378124Q258.7375 36.51875 257.58124 37.159374Q256.4406 37.784374 255.08125 37.784374Q252.89375 37.784374 251.55 36.39375Q250.22188 34.9875 250.22188 32.3625ZM252.01875 32.3625Q252.01875 34.3625 252.87813 35.346874Q253.75313 36.33125 255.08125 36.33125Q256.39374 36.33125 257.2531 35.346874Q258.1281 34.346874 258.1281 32.3Q258.1281 30.378124 257.2531 29.39375Q256.3781 28.39375 255.08125 28.39375Q253.75313 28.39375 252.87813 29.39375Q252.01875 30.378124 252.01875 32.3625ZM261.8625 37.55L261.8625 27.175L263.45624 27.175L263.45624 28.659374Q264.59686 26.940624 266.7531 26.940624Q267.6906 26.940624 268.47186 27.284374Q269.26874 27.6125 269.65936 28.159374Q270.05 28.70625 270.20624 29.45625Q270.3 29.95625 270.3 31.175L270.3 37.55L268.53436 37.55L268.53436 31.2375Q268.53436 30.159374 268.33124 29.628124Q268.1281 29.096874 267.59686 28.784374Q267.08124 28.471874 266.3781 28.471874Q265.2531 28.471874 264.4406 29.190624Q263.6281 29.89375 263.6281 31.878124L263.6281 37.55L261.8625 37.55ZM278.22186 32.3625Q278.22186 29.4875 279.8156 28.096874Q281.15936 26.940624 283.08124 26.940624Q285.22186 26.940624 286.5656 28.346874Q287.925 29.753124 287.925 32.221874Q287.925 34.221874 287.33124 35.378124Q286.7375 36.51875 285.58124 37.159374Q284.4406 37.784374 283.08124 37.784374Q280.89374 37.784374 279.55 36.39375Q278.22186 34.9875 278.22186 32.3625ZM280.01874 32.3625Q280.01874 34.3625 280.8781 35.346874Q281.7531 36.33125 283.08124 36.33125Q284.39374 36.33125 285.2531 35.346874Q286.1281 34.346874 286.1281 32.3Q286.1281 30.378124 285.2531 29.39375Q284.3781 28.39375 283.08124 28.39375Q281.7531 28.39375 280.8781 29.39375Q280.01874 30.378124 280.01874 32.3625ZM290.28436 37.55L290.28436 28.55L288.7375 28.55L288.7375 27.175L290.28436 27.175L290.28436 26.08125Q290.28436 25.034374 290.47186 24.51875Q290.72186 23.83125 291.3625 23.409374Q292.0031 22.9875 293.15936 22.9875Q293.90936 22.9875 294.8 23.159374L294.53436 24.690624Q293.9875 24.596874 293.5031 24.596874Q292.70624 24.596874 292.3625 24.940624Q292.03436 25.284374 292.03436 26.221874L292.03436 27.175L294.0656 27.175L294.0656 28.55L292.03436 28.55L292.03436 37.55L290.28436 37.55ZM301.8625 37.55L301.8625 27.175L303.4406 27.175L303.4406 28.628124Q303.925 27.878124 304.7375 27.409374Q305.55 26.940624 306.58124 26.940624Q307.7375 26.940624 308.47186 27.425Q309.20624 27.89375 309.51874 28.753124Q310.7531 26.940624 312.72186 26.940624Q314.26874 26.940624 315.09686 27.8Q315.925 28.659374 315.925 30.425L315.925 37.55L314.175 37.55L314.175 31.01875Q314.175 29.95625 314.0031 29.503124Q313.83124 29.034374 313.3781 28.753124Q312.9406 28.471874 312.33124 28.471874Q311.2375 28.471874 310.5031 29.20625Q309.78436 29.925 309.78436 31.51875L309.78436 37.55L308.03436 37.55L308.03436 30.815624Q308.03436 29.64375 307.59686 29.065624Q307.175 28.471874 306.1906 28.471874Q305.45624 28.471874 304.8156 28.8625Q304.1906 29.253124 303.90936 30.003124Q303.6281 30.753124 303.6281 32.175L303.6281 37.55L301.8625 37.55ZM325.64374 36.26875Q324.65936 37.096874 323.7531 37.440624Q322.84686 37.784374 321.8156 37.784374Q320.1125 37.784374 319.1906 36.95625Q318.26874 36.1125 318.26874 34.815624Q318.26874 34.05 318.6125 33.425Q318.97186 32.8 319.53436 32.425Q320.09686 32.034374 320.8 31.83125Q321.3156 31.70625 322.3625 31.565624Q324.4875 31.315624 325.4875 30.971874Q325.5031 30.6125 325.5031 30.503124Q325.5031 29.440624 325.0031 28.9875Q324.33124 28.39375 323.0031 28.39375Q321.7531 28.39375 321.15936 28.83125Q320.58124 29.26875 320.3 30.378124L318.58124 30.14375Q318.8156 29.034374 319.34686 28.3625Q319.8781 27.675 320.89374 27.315624Q321.90936 26.940624 323.2531 26.940624Q324.58124 26.940624 325.40936 27.253124Q326.2375 27.565624 326.6281 28.05Q327.01874 28.51875 327.175 29.2375Q327.26874 29.690624 327.26874 30.8625L327.26874 33.20625Q327.26874 35.659374 327.3781 36.315624Q327.4875 36.95625 327.83124 37.55L325.9875 37.55Q325.72186 37.003124 325.64374 36.26875ZM325.4875 32.346874Q324.53436 32.7375 322.6125 33.003124Q321.53436 33.159374 321.08124 33.3625Q320.64374 33.55 320.39374 33.925Q320.14374 34.3 320.14374 34.76875Q320.14374 35.471874 320.675 35.940624Q321.20624 36.409374 322.2375 36.409374Q323.2531 36.409374 324.03436 35.971874Q324.83124 35.51875 325.20624 34.753124Q325.4875 34.14375 325.4875 32.9875L325.4875 32.346874ZM333.70624 35.971874L333.95624 37.534374Q333.22186 37.690624 332.6281 37.690624Q331.675 37.690624 331.14374 37.39375Q330.6281 37.08125 330.40936 36.596874Q330.1906 36.096874 330.1906 34.51875L330.1906 28.55L328.90936 28.55L328.90936 27.175L330.1906 27.175L330.1906 24.6125L331.9406 23.55L331.9406 27.175L333.70624 27.175L333.70624 28.55L331.9406 28.55L331.9406 34.6125Q331.9406 35.3625 332.03436 35.58125Q332.1281 35.784374 332.33124 35.925Q332.55 36.05 332.9406 36.05Q333.22186 36.05 333.70624 35.971874ZM335.84686 37.55L335.84686 27.175L337.425 27.175L337.425 28.753124Q338.03436 27.64375 338.55 27.3Q339.0656 26.940624 339.675 26.940624Q340.5656 26.940624 341.4875 27.503124L340.8781 29.14375Q340.2375 28.753124 339.59686 28.753124Q339.01874 28.753124 338.55 29.1125Q338.09686 29.45625 337.89374 30.065624Q337.6125 31.003124 337.6125 32.1125L337.6125 37.55L335.84686 37.55ZM342.8781 25.253124L342.8781 23.2375L344.64374 23.2375L344.64374 25.253124L342.8781 25.253124ZM342.8781 37.55L342.8781 27.175L344.64374 27.175L344.64374 37.55L342.8781 37.55ZM345.6906 37.55L349.4875 32.159374L345.9875 27.175L348.175 27.175L349.76874 29.6125Q350.22186 30.3 350.4875 30.76875Q350.925 30.128124 351.28436 29.628124L353.03436 27.175L355.1281 27.175L351.55 32.065624L355.40936 37.55L353.2531 37.55L351.1125 34.33125L350.55 33.45625L347.83124 37.55L345.6906 37.55Z" fill-rule="nonzero"/></svg>